<svg id="Capa_1" data-name="Capa 1" xmlns="http://www.w3.org/2000/svg" viewBox="0 0 801 551"><title>Монтажная область 1screen</title><path d="M648,131.51v-8A39.55,39.55,0,0,0,608.5,84h-416A39.55,39.55,0,0,0,153,123.5v304h0A39.54,39.54,0,0,0,192.5,467h416A39.55,39.55,0,0,0,648,427.5v-296ZM192.5,99h416A24.53,24.53,0,0,1,633,123.5v4.88c-35.12,35-92.85,92.47-140.72,140.29l-75.16-75.16a23.54,23.54,0,0,0-33.24,0L168,409.39V123.5A24.53,24.53,0,0,1,192.5,99Zm416,353h-416a24.53,24.53,0,0,1-24.32-21.57L394.49,204.12a8.5,8.5,0,0,1,12,0l75.16,75.15c-39.41,39.4-69.86,70-71.17,71.73a7.5,7.5,0,0,0,11.82,9.24C428.08,353.77,566,216.31,633,149.55v278A24.53,24.53,0,0,1,608.5,452Z"/><path d="M256.5,227A39.5,39.5,0,1,0,217,187.5,39.55,39.55,0,0,0,256.5,227Zm0-64A24.5,24.5,0,1,1,232,187.5,24.53,24.53,0,0,1,256.5,163Z"/></svg>