<svg width="16" height="16" viewBox="0 0 16 16" fill="none" xmlns="http://www.w3.org/2000/svg">
<path d="M15.5887 11.1154L13.5996 9.24189C13.0512 8.72541 12.1588 8.72541 11.6105 9.24189L10.7063 10.0935C10.2909 10.4848 9.61484 10.4846 9.19954 10.0936L5.28062 6.3994C4.8642 6.00718 4.86413 5.37238 5.28062 4.9801C5.42625 4.84294 5.84443 4.44908 6.18475 4.12854C6.73075 3.61432 6.73837 2.77648 6.18422 2.25461L4.19563 0.387532C3.64724 -0.128951 2.75491 -0.128951 2.20798 0.386178C1.79872 0.768294 1.66671 0.891565 1.4832 1.0629C-0.494385 2.92547 -0.494385 5.95612 1.48311 7.81863L7.69251 13.67C9.67472 15.537 12.883 15.5372 14.8654 13.67L15.5887 12.9888C16.1371 12.4723 16.1371 11.6319 15.5887 11.1154ZM2.86958 1.01201C3.05237 0.839849 3.34975 0.839819 3.53314 1.01248L5.52172 2.87956C5.70495 3.05213 5.70495 3.33143 5.52172 3.50403L5.19018 3.81627L2.53975 1.31995L2.86958 1.01201ZM8.35566 13.0457L2.14623 7.19418C0.616226 5.75314 0.532129 3.49038 1.8876 1.9547L4.53034 4.44378C3.83593 5.1852 3.86487 6.31498 4.61743 7.02379L8.53623 10.7178C8.53626 10.7178 8.53633 10.7179 8.53636 10.7179C9.28811 11.426 10.4876 11.455 11.2757 10.8001L13.9185 13.2893C12.2932 14.5637 9.8962 14.4966 8.35566 13.0457ZM14.9257 12.3643L14.5942 12.6766L11.942 10.1786L12.2735 9.86637C12.4563 9.69421 12.7537 9.69418 12.9366 9.86637L14.9257 11.7398C15.1085 11.912 15.1085 12.1922 14.9257 12.3643Z" fill="white"/>
</svg>
