<svg width="22" height="19" viewBox="0 0 22 19" fill="none" xmlns="http://www.w3.org/2000/svg">
<path d="M6.74633 10.4205C6.32927 10.4205 5.98999 10.7597 5.98999 11.1768V15.5174C5.98999 15.9344 6.32927 16.2737 6.74633 16.2737H7.61446C8.03152 16.2737 8.3708 15.9344 8.3708 15.5174V11.1767C8.3708 10.7597 8.03152 10.4204 7.61446 10.4204H6.74633V10.4205ZM7.72623 11.1767V15.5173C7.72623 15.579 7.67608 15.6291 7.61442 15.6291H6.74628C6.68462 15.6291 6.63448 15.579 6.63448 15.5173V11.1767C6.63448 11.1151 6.68462 11.0649 6.74628 11.0649H7.61442C7.67608 11.065 7.72623 11.1151 7.72623 11.1767Z" fill="white"/>
<path d="M10.5659 10.4205C10.1489 10.4205 9.80957 10.7597 9.80957 11.1768V15.5174C9.80957 15.9344 10.1489 16.2737 10.5659 16.2737H11.434C11.8511 16.2737 12.1903 15.9344 12.1903 15.5174V11.1767C12.1903 10.7597 11.8511 10.4204 11.434 10.4204H10.5659V10.4205ZM11.5458 11.1767V15.5173C11.5458 15.579 11.4957 15.6291 11.434 15.6291H10.5659C10.5042 15.6291 10.4541 15.579 10.4541 15.5173V11.1767C10.4541 11.1151 10.5042 11.0649 10.5659 11.0649H11.434C11.4957 11.065 11.5458 11.1151 11.5458 11.1767Z" fill="white"/>
<path d="M15.2537 10.4204H14.3856C13.9686 10.4204 13.6293 10.7597 13.6293 11.1767V15.5173C13.6293 15.9344 13.9686 16.2736 14.3856 16.2736H15.2537C15.6708 16.2736 16.0101 15.9344 16.0101 15.5173V11.1767C16.0101 10.7597 15.6708 10.4204 15.2537 10.4204ZM15.3656 15.5173C15.3656 15.5789 15.3154 15.6291 15.2537 15.6291H14.3856C14.3239 15.6291 14.2738 15.5789 14.2738 15.5173V11.1767C14.2738 11.115 14.3239 11.0649 14.3856 11.0649H15.2537C15.3154 11.0649 15.3656 11.115 15.3656 11.1767V15.5173Z" fill="white"/>
<path d="M21.2437 6.86152H19.0691C18.8911 6.86152 18.7468 7.00577 18.7468 7.18379C18.7468 7.3618 18.8911 7.50605 19.0691 7.50605H21.2437C21.3053 7.50605 21.3554 7.55615 21.3554 7.61777V8.48574C21.3554 8.54753 21.3053 8.59784 21.2437 8.59784H15.958C15.9837 8.54774 16.0062 8.49558 16.025 8.44144C16.1291 8.141 16.11 7.818 15.9712 7.53196L15.9586 7.50601H17.5609C17.7388 7.50601 17.8831 7.36176 17.8831 7.18374C17.8831 7.00572 17.7388 6.86148 17.5609 6.86148H15.6458L12.9392 1.28384C12.6526 0.693368 11.939 0.446126 11.3486 0.732598C11.2156 0.797137 11.0983 0.884192 11 0.988864C10.9017 0.884235 10.7844 0.797137 10.6513 0.732598C10.0608 0.446083 9.34728 0.693368 9.06072 1.28384L6.35416 6.86152H0.756249C0.339238 6.86152 0 7.2008 0 7.61777V8.48574C0 8.90296 0.339281 9.24237 0.756249 9.24237H1.20016L2.51212 17.0038C2.64455 17.7881 3.31817 18.3574 4.11382 18.3574H15.116C15.2939 18.3574 15.4382 18.2131 15.4382 18.0351C15.4382 17.8571 15.2939 17.7128 15.116 17.7128H4.11382C3.63386 17.7128 3.22755 17.3695 3.14767 16.8964L1.85384 9.24237H2.83078C3.00875 9.24237 3.15304 9.09813 3.15304 8.92011C3.15304 8.74209 3.00875 8.59784 2.83078 8.59784H0.756249C0.694632 8.59784 0.64453 8.54753 0.64453 8.48574V7.61777C0.64453 7.55615 0.694675 7.50605 0.756249 7.50605H6.0414L6.02881 7.532C5.89002 7.81805 5.8709 8.14104 5.97501 8.44148C5.99379 8.49562 6.01626 8.54778 6.042 8.59788H4.33898C4.161 8.59788 4.01671 8.74213 4.01671 8.92015C4.01671 9.09817 4.161 9.24241 4.33898 9.24241H20.1877L18.8564 16.901C18.7747 17.3714 18.3686 17.7128 17.8909 17.7128H16.6242C16.4462 17.7128 16.3019 17.8571 16.3019 18.0351C16.3019 18.2131 16.4462 18.3574 16.6242 18.3574H17.8909C18.6828 18.3574 19.356 17.7912 19.4914 17.0113L20.8419 9.24237H21.2437C21.6607 9.24237 22 8.90296 22 8.48574V7.61777C22 7.20076 21.6607 6.86152 21.2437 6.86152ZM11.3525 1.62484C11.4003 1.48709 11.4988 1.37614 11.63 1.3125C11.7066 1.27534 11.7876 1.25776 11.8674 1.25776C12.0701 1.25776 12.2651 1.37107 12.3594 1.56525L15.3913 7.81336C15.4549 7.94455 15.4637 8.09262 15.416 8.23037C15.3682 8.36813 15.2696 8.47908 15.1385 8.54271C15.0073 8.60644 14.8592 8.61516 14.7215 8.56738C14.5837 8.51968 14.4728 8.42111 14.4091 8.28993L11.3772 2.04185C11.3136 1.91067 11.3048 1.7626 11.3525 1.62484ZM11 2.74083L12.9996 6.86152H9.00039L11 2.74083ZM9.64058 1.56525C9.73485 1.37098 9.92985 1.25776 10.1325 1.25776C10.2124 1.25776 10.2934 1.27538 10.37 1.3125C10.5011 1.3761 10.5997 1.48704 10.6474 1.62484C10.6952 1.7626 10.6864 1.91067 10.6228 2.04185L7.59085 8.28993C7.52721 8.42111 7.41631 8.51968 7.27851 8.56738C7.14075 8.61512 6.99264 8.60644 6.86145 8.54271C6.73031 8.47912 6.63174 8.36817 6.584 8.23037C6.53627 8.09262 6.54503 7.94455 6.60867 7.81336L9.64058 1.56525ZM8.17071 8.57133L8.68762 7.50605H13.3123L13.8293 8.57133C13.8336 8.58031 13.8384 8.58899 13.8429 8.59784H8.15704C8.1616 8.58899 8.16633 8.58031 8.17071 8.57133Z" fill="white"/>
</svg>
