<svg width="19" height="19" viewBox="0 0 19 19" fill="none" xmlns="http://www.w3.org/2000/svg">
<circle cx="9.5" cy="9.5" r="8.5" stroke="#333333" stroke-linecap="square"/>
<path d="M8.74316 10.998C8.74967 10.6107 8.79362 10.3047 8.875 10.0801C8.95638 9.85547 9.1224 9.60645 9.37305 9.33301L10.0127 8.67383C10.2861 8.36458 10.4229 8.03255 10.4229 7.67773C10.4229 7.33594 10.3333 7.06901 10.1543 6.87695C9.97526 6.68164 9.71484 6.58398 9.37305 6.58398C9.04102 6.58398 8.77409 6.67188 8.57227 6.84766C8.37044 7.02344 8.26953 7.25944 8.26953 7.55566H7.36621C7.37272 7.02832 7.5599 6.60352 7.92773 6.28125C8.29883 5.95573 8.7806 5.79297 9.37305 5.79297C9.98828 5.79297 10.4668 5.95898 10.8086 6.29102C11.1536 6.61979 11.3262 7.07227 11.3262 7.64844C11.3262 8.2181 11.0625 8.77962 10.5352 9.33301L10.0029 9.86035C9.7653 10.124 9.64648 10.5033 9.64648 10.998H8.74316ZM8.7041 12.5459C8.7041 12.3994 8.74805 12.2773 8.83594 12.1797C8.92708 12.0788 9.06055 12.0283 9.23633 12.0283C9.41211 12.0283 9.54557 12.0788 9.63672 12.1797C9.72786 12.2773 9.77344 12.3994 9.77344 12.5459C9.77344 12.6924 9.72786 12.8145 9.63672 12.9121C9.54557 13.0065 9.41211 13.0537 9.23633 13.0537C9.06055 13.0537 8.92708 13.0065 8.83594 12.9121C8.74805 12.8145 8.7041 12.6924 8.7041 12.5459Z" fill="#333333"/>
</svg>
