<svg width="70" height="40" viewBox="0 0 70 40" fill="none" xmlns="http://www.w3.org/2000/svg">
<rect width="70" height="40" rx="20" fill="url(#paint0_linear)"/>
<path d="M30.7463 20.4205C30.3293 20.4205 29.99 20.7597 29.99 21.1768V25.5174C29.99 25.9344 30.3293 26.2737 30.7463 26.2737H31.6145C32.0315 26.2737 32.3708 25.9344 32.3708 25.5174V21.1767C32.3708 20.7597 32.0315 20.4204 31.6145 20.4204H30.7463V20.4205ZM31.7262 21.1767V25.5173C31.7262 25.579 31.6761 25.6291 31.6144 25.6291H30.7463C30.6846 25.6291 30.6345 25.579 30.6345 25.5173V21.1767C30.6345 21.1151 30.6846 21.0649 30.7463 21.0649H31.6144C31.6761 21.065 31.7262 21.1151 31.7262 21.1767Z" fill="white"/>
<path d="M34.5659 20.4205C34.1489 20.4205 33.8096 20.7597 33.8096 21.1768V25.5174C33.8096 25.9344 34.1489 26.2737 34.5659 26.2737H35.434C35.8511 26.2737 36.1903 25.9344 36.1903 25.5174V21.1767C36.1903 20.7597 35.8511 20.4204 35.434 20.4204H34.5659V20.4205ZM35.5458 21.1767V25.5173C35.5458 25.579 35.4957 25.6291 35.434 25.6291H34.5659C34.5042 25.6291 34.4541 25.579 34.4541 25.5173V21.1767C34.4541 21.1151 34.5042 21.0649 34.5659 21.0649H35.434C35.4957 21.065 35.5458 21.1151 35.5458 21.1767Z" fill="white"/>
<path d="M39.2537 20.4204H38.3856C37.9686 20.4204 37.6293 20.7597 37.6293 21.1767V25.5173C37.6293 25.9344 37.9686 26.2736 38.3856 26.2736H39.2537C39.6708 26.2736 40.0101 25.9344 40.0101 25.5173V21.1767C40.0101 20.7597 39.6708 20.4204 39.2537 20.4204ZM39.3656 25.5173C39.3656 25.5789 39.3154 25.6291 39.2537 25.6291H38.3856C38.3239 25.6291 38.2738 25.5789 38.2738 25.5173V21.1767C38.2738 21.115 38.3239 21.0649 38.3856 21.0649H39.2537C39.3154 21.0649 39.3656 21.115 39.3656 21.1767V25.5173Z" fill="white"/>
<path d="M45.2437 16.8615H43.0691C42.8911 16.8615 42.7468 17.0058 42.7468 17.1838C42.7468 17.3618 42.8911 17.5061 43.0691 17.5061H45.2437C45.3053 17.5061 45.3554 17.5562 45.3554 17.6178V18.4857C45.3554 18.5475 45.3053 18.5978 45.2437 18.5978H39.958C39.9837 18.5477 40.0062 18.4956 40.025 18.4414C40.1291 18.141 40.11 17.818 39.9712 17.532L39.9586 17.506H41.5609C41.7388 17.506 41.8831 17.3618 41.8831 17.1837C41.8831 17.0057 41.7388 16.8615 41.5609 16.8615H39.6458L36.9392 11.2838C36.6526 10.6934 35.939 10.4461 35.3486 10.7326C35.2156 10.7971 35.0983 10.8842 35 10.9889C34.9017 10.8842 34.7844 10.7971 34.6513 10.7326C34.0608 10.4461 33.3473 10.6934 33.0607 11.2838L30.3542 16.8615H24.7562C24.3392 16.8615 24 17.2008 24 17.6178V18.4857C24 18.903 24.3393 19.2424 24.7562 19.2424H25.2002L26.5121 27.0038C26.6446 27.7881 27.3182 28.3574 28.1138 28.3574H39.116C39.2939 28.3574 39.4382 28.2131 39.4382 28.0351C39.4382 27.8571 39.2939 27.7128 39.116 27.7128H28.1138C27.6339 27.7128 27.2275 27.3695 27.1477 26.8964L25.8538 19.2424H26.8308C27.0088 19.2424 27.153 19.0981 27.153 18.9201C27.153 18.7421 27.0088 18.5978 26.8308 18.5978H24.7562C24.6946 18.5978 24.6445 18.5475 24.6445 18.4857V17.6178C24.6445 17.5562 24.6947 17.5061 24.7562 17.5061H30.0414L30.0288 17.532C29.89 17.818 29.8709 18.141 29.975 18.4415C29.9938 18.4956 30.0163 18.5478 30.042 18.5979H28.339C28.161 18.5979 28.0167 18.7421 28.0167 18.9201C28.0167 19.0982 28.161 19.2424 28.339 19.2424H44.1877L42.8564 26.901C42.7747 27.3714 42.3686 27.7128 41.8909 27.7128H40.6242C40.4462 27.7128 40.3019 27.8571 40.3019 28.0351C40.3019 28.2131 40.4462 28.3574 40.6242 28.3574H41.8909C42.6828 28.3574 43.356 27.7912 43.4914 27.0113L44.8419 19.2424H45.2437C45.6607 19.2424 46 18.903 46 18.4857V17.6178C46 17.2008 45.6607 16.8615 45.2437 16.8615ZM35.3525 11.6248C35.4003 11.4871 35.4988 11.3761 35.63 11.3125C35.7066 11.2753 35.7876 11.2578 35.8674 11.2578C36.0701 11.2578 36.2651 11.3711 36.3594 11.5652L39.3913 17.8134C39.4549 17.9445 39.4637 18.0926 39.416 18.2304C39.3682 18.3681 39.2696 18.4791 39.1385 18.5427C39.0073 18.6064 38.8592 18.6152 38.7215 18.5674C38.5837 18.5197 38.4728 18.4211 38.4091 18.2899L35.3772 12.0419C35.3136 11.9107 35.3048 11.7626 35.3525 11.6248ZM35 12.7408L36.9996 16.8615H33.0004L35 12.7408ZM33.6406 11.5652C33.7349 11.371 33.9298 11.2578 34.1325 11.2578C34.2124 11.2578 34.2934 11.2754 34.37 11.3125C34.5011 11.3761 34.5997 11.487 34.6474 11.6248C34.6952 11.7626 34.6864 11.9107 34.6228 12.0419L31.5908 18.2899C31.5272 18.4211 31.4163 18.5197 31.2785 18.5674C31.1407 18.6151 30.9926 18.6064 30.8615 18.5427C30.7303 18.4791 30.6317 18.3682 30.584 18.2304C30.5363 18.0926 30.545 17.9445 30.6087 17.8134L33.6406 11.5652ZM32.1707 18.5713L32.6876 17.5061H37.3123L37.8293 18.5713C37.8336 18.5803 37.8384 18.589 37.8429 18.5978H32.157C32.1616 18.589 32.1663 18.5803 32.1707 18.5713Z" fill="white"/>
<defs>
<linearGradient id="paint0_linear" x1="212" y1="-28" x2="3.93481" y2="129.683" gradientUnits="userSpaceOnUse">
<stop stop-color="#FF0099"/>
<stop offset="1" stop-color="#FF4D00"/>
</linearGradient>
</defs>
</svg>
