<?xml version="1.0" encoding="utf-8"?>
<!-- Generator: Adobe Illustrator 22.0.1, SVG Export Plug-In . SVG Version: 6.00 Build 0)  -->
<svg version="1.1" xmlns="http://www.w3.org/2000/svg" xmlns:xlink="http://www.w3.org/1999/xlink" x="0px" y="0px"
	 viewBox="0 0 500 500" style="enable-background:new 0 0 500 500;" xml:space="preserve">
<style type="text/css">
	.st0{fill:none;stroke:#E0E0E0;stroke-miterlimit:10;}
	.st1{fill:#A3A2A2;}
	.st2{fill:none;stroke:#A3A2A2;stroke-miterlimit:10;}
	.st3{fill:#E0E0E0;}
	.st4{display:none;}
	.st5{display:inline;}
	.st6{fill:#EBEBEB;}
	.st7{fill:#455A64;}
	.st8{fill:#FAFAFA;}
	.st9{fill:#E8505B;}
	.st10{fill:#263238;}
	.st11{fill:#C13945;}
	.st12{fill:none;stroke:#01004C;stroke-width:1.1327;stroke-linecap:round;stroke-linejoin:round;stroke-miterlimit:10;}
	.st13{fill:#FFBE9D;}
	.st14{opacity:0.2;}
	.st15{fill:#EB996E;}
</style>
<g id="Background_Complete">
	<g>
		<path class="st0" d="M412.9,268.7c-2.7,0-5.5,0-8.2,0c-2-18.4-4-36.9-6-55.3c2.5,0,4.9,0,7.4,0
			C408.3,231.8,410.6,250.2,412.9,268.7z"/>
		<path class="st0" d="M376.5,213.4h20.2v-7.5c0-5.7-4.5-10.3-10.1-10.3l0,0c-5.6,0-10.1,4.6-10.1,10.3V213.4z"/>
		<polygon class="st0" points="404.6,268.7 361.7,268.7 366.5,213.4 398.6,213.4 		"/>
	</g>
	<g>
		<polygon class="st1" points="184.3,108.7 152.9,108.7 156.4,68.3 179.9,68.3 		"/>
		<path class="st2" d="M157.5,69h15v-5.5c0-4.2-3.4-7.5-7.5-7.5l0,0c-4.2,0-7.5,3.4-7.5,7.5V69z"/>
		<polygon class="st3" points="178.3,108.7 146.9,108.7 150.4,68.3 173.9,68.3 		"/>
	</g>
	<g>
		<polygon class="st1" points="416.3,177.9 354.7,177.9 361.5,98.4 407.7,98.4 		"/>
		<path class="st2" d="M363.8,99.8h29.6V89.1c0-8.2-6.6-14.8-14.8-14.8l0,0c-8.2,0-14.8,6.6-14.8,14.8V99.8z"/>
		<polygon class="st3" points="404.5,177.9 342.9,177.9 349.7,98.4 395.9,98.4 		"/>
	</g>
	<g>
		<polygon class="st1" points="159.3,231.4 97.7,231.4 104.5,151.9 150.7,151.9 		"/>
		<path class="st2" d="M106.8,153.4h29.6v-10.8c0-8.2-6.6-14.8-14.8-14.8l0,0c-8.2,0-14.8,6.6-14.8,14.8V153.4z"/>
		<polygon class="st3" points="147.5,231.4 85.9,231.4 92.7,151.9 138.9,151.9 		"/>
	</g>
	<g>
		<path class="st0" d="M120.5,111.7c-1.5,0-2.9,0-4.4,0c-1.1-9.8-2.1-19.6-3.2-29.4c1.3,0,2.6,0,3.9,0
			C118.1,92.1,119.3,101.9,120.5,111.7z"/>
		<path class="st0" d="M101.2,82.4h10.7v-4c0-3-2.4-5.5-5.4-5.5l0,0c-3,0-5.4,2.5-5.4,5.5V82.4z"/>
		<polygon class="st0" points="116.1,111.7 93.4,111.7 95.9,82.4 113,82.4 		"/>
	</g>
</g>
<g id="Background_Simple" class="st4">
	<g class="st5">
		<path class="st6" d="M461.4,105.3l-2.4-3.9c-20.4-33.2-57.2-53.1-96-50.7c-5,0.3-10,1-14.9,2c-35.3,7.5-66,33.8-78.8,67.6
			c-7.5,19.9-9.6,42.7-23.8,58.5c-18.5,20.5-49.9,21.2-77.5,20.3c-27.6-0.8-59-0.1-77.4,20.5C79,232.4,75.4,250.8,76.3,268
			c2.5,45.7,34.7,86.6,75.8,107s89.4,22.1,134.3,13.2c62.9-12.5,122.8-46.9,158.7-100.1C481.1,235,490.2,162.6,461.4,105.3z"/>
	</g>
</g>
<g id="Device">
	<g>
		<g>
			<g>
				<g>
					<g>
						<g>
							<g>
								<g>
									<path class="st7" d="M333.7,445.9l-132.9-0.6c-16-0.1-28.9-13.1-28.8-29.1l1.4-333.1c0.1-16,13.1-28.9,29.1-28.8l132.9,0.6
										c16,0.1,28.9,13.1,28.8,29.1l-1.4,333.1C362.7,433,349.6,445.9,333.7,445.9z"/>
								</g>
							</g>
							<g>
								<g>
									<path class="st8" d="M335.1,66.4l-25.8-0.1c-3.5,0-6.3,2.9-6.3,6.5l0,4.7c0,3.6-2.8,6.5-6.3,6.5l-50.2-0.2
										c-3.5,0-6.2-3-6.2-6.6l0-4.7c0-3.6-2.8-6.6-6.2-6.6l-9.1,0l-22.5-0.1c-11.2-0.1-20.3,9-20.4,20.2l-1.4,325.1
										c0,11.2,9,20.3,20.2,20.4l132.6,0.6c11.2,0.1,20.3-9,20.4-20.2l1.4-325.1C355.4,75.6,346.3,66.4,335.1,66.4z"/>
								</g>
							</g>
						</g>
					</g>
				</g>
			</g>
			<g>
				<polygon class="st9" points="215.7,179.2 217.4,182.7 221.3,183.2 218.5,186 219.1,189.8 215.7,188 212.2,189.8 212.9,186 
					210.1,183.2 214,182.7 				"/>
			</g>
			<g>
				<polygon class="st9" points="327.2,144.5 328.5,147.2 331.5,147.7 329.3,149.8 329.8,152.7 327.2,151.3 324.5,152.7 325,149.8 
					322.9,147.7 325.8,147.2 				"/>
			</g>
			<g>
				<polygon class="st9" points="324.6,209.4 325.7,211 327.7,210.9 326.5,212.5 327.2,214.3 325.3,213.7 323.8,214.9 323.8,213 
					322.2,211.9 324,211.3 				"/>
			</g>
			<g>
				<path class="st9" d="M214.4,156c-1,0-1.8-0.8-1.8-1.8c0-1,0.8-1.8,1.8-1.8c1,0,1.8,0.8,1.8,1.8C216.2,155.2,215.4,156,214.4,156
					z M214.4,153.3c-0.5,0-0.8,0.4-0.8,0.8c0,0.5,0.4,0.8,0.8,0.8c0.5,0,0.8-0.4,0.8-0.8C215.2,153.7,214.8,153.3,214.4,153.3z"/>
			</g>
			<g>
				<path class="st9" d="M317.5,181.2c-1,0-1.8-0.8-1.8-1.8c0-1,0.8-1.8,1.8-1.8c1,0,1.8,0.8,1.8,1.8
					C319.4,180.4,318.5,181.2,317.5,181.2z M317.5,178.6c-0.5,0-0.8,0.4-0.8,0.8c0,0.5,0.4,0.8,0.8,0.8c0.5,0,0.8-0.4,0.8-0.8
					C318.4,178.9,318,178.6,317.5,178.6z"/>
			</g>
			<g>
				<path class="st9" d="M293.7,142.7c-1,0-1.8-0.8-1.8-1.8c0-1,0.8-1.8,1.8-1.8c1,0,1.8,0.8,1.8,1.8
					C295.5,141.9,294.7,142.7,293.7,142.7z M293.7,140c-0.5,0-0.8,0.4-0.8,0.8c0,0.5,0.4,0.8,0.8,0.8c0.5,0,0.8-0.4,0.8-0.8
					C294.5,140.4,294.2,140,293.7,140z"/>
			</g>
			<g>
				<circle class="st9" cx="204.4" cy="213.5" r="1.3"/>
			</g>
			<g>
				<path class="st9" d="M266.9,232.4c0,0.7-0.6,1.3-1.3,1.3c-0.7,0-1.3-0.6-1.3-1.3s0.6-1.3,1.3-1.3
					C266.3,231.1,266.9,231.7,266.9,232.4z"/>
			</g>
			<g>
				<circle class="st9" cx="252.7" cy="127.4" r="1.3"/>
			</g>
			<g>
				<g>
					<rect x="244.6" y="247.8" class="st10" width="73.1" height="52.9"/>
				</g>
				<g>
					<rect x="220.6" y="247.8" class="st7" width="63.7" height="52.9"/>
				</g>
				<g>
					<polygon class="st7" points="220.6,247.8 209.3,236.5 238,236.5 248.6,247.8 					"/>
				</g>
				<g>
					<polygon class="st7" points="284.3,247.8 297.3,236.5 333,236.5 317.7,247.8 					"/>
				</g>
				<g>
					<g>
						<path class="st10" d="M284.3,247.8c0,0.1-14.3,0.3-31.9,0.3c-17.6,0-31.9-0.1-31.9-0.3c0-0.1,14.3-0.3,31.9-0.3
							C270.1,247.5,284.3,247.6,284.3,247.8z"/>
					</g>
				</g>
			</g>
		</g>
	</g>
	<g>
		<polygon class="st11" points="294.5,216.4 253.7,216.4 258.3,163.8 288.8,163.8 		"/>
		<path class="st12" d="M259.7,164.7h19.6v-7.1c0-5.4-4.4-9.8-9.8-9.8l0,0c-5.4,0-9.8,4.4-9.8,9.8V164.7z"/>
		<polygon class="st9" points="286.7,216.4 245.9,216.4 250.4,163.8 281,163.8 		"/>
	</g>
	<g>
		<path class="st10" d="M240.2,342.5h7.5v11.2h-1.4v-9.9h-4.6v9.9h-1.4V342.5z"/>
		<path class="st10" d="M251.1,353.7l0.3-1.3c0.2,0.1,0.4,0.1,0.7,0.1c0.7,0,1.1-0.3,1.4-0.9l0.2-0.6l-3.8-8.5h1.5l2.1,4.9l0.8,2.2
			h0.1l0.8-2.2l1.9-4.9h1.4l-3.6,9.1c-0.6,1.4-1.4,2.2-2.8,2.2C251.8,353.8,251.5,353.8,251.1,353.7z"/>
		<path class="st10" d="M260.7,348.1c0-3.6,2.1-5.8,5-5.8c1.3,0,2.4,0.6,3.1,1.4l-0.8,0.9c-0.6-0.6-1.3-1-2.2-1
			c-2.1,0-3.5,1.7-3.5,4.5c0,2.8,1.4,4.6,3.5,4.6c1,0,1.8-0.4,2.5-1.2l0.8,0.9c-0.9,1-2,1.6-3.5,1.6
			C262.8,353.8,260.7,351.7,260.7,348.1z"/>
		<path class="st10" d="M274.4,343.7h-3.7v-1.2h8.8v1.2h-3.7v9.9h-1.4V343.7z"/>
		<path class="st10" d="M284.7,342.5h1.6l3.8,11.2h-1.5l-1.9-6.2c-0.4-1.2-0.8-2.5-1.1-3.8h-0.1c-0.4,1.3-0.7,2.5-1.1,3.8l-2,6.2
			H281L284.7,342.5z M283,349.1h5.1v1.2H283V349.1z"/>
		<path class="st10" d="M295,347.9l1.1,0.6l-3.1,5.1h-1.6L295,347.9z M297.9,348.9h-2.3c-2.1-0.1-3.7-1.1-3.7-3.3
			c0-2.3,1.6-3.1,3.9-3.1h3.5v11.2h-1.4V348.9z M297.9,347.8v-4.1h-1.9c-1.7,0-2.7,0.5-2.7,2c0,1.4,1,2.1,2.7,2.1H297.9z"/>
		<path class="st10" d="M235.3,362.9h1.4v4.7h2.7l4.1,6.5h-1.6l-3.3-5.3h-1.8v5.3h-1.4V362.9z M238.4,367.9l1.6-3.1
			c0.9-1.7,1.5-2.1,2.5-2.1c0.2,0,0.4,0,0.6,0.1l-0.3,1.3c-0.1-0.1-0.3-0.1-0.4-0.1c-0.5,0-0.8,0.2-1.5,1.4l-1.4,2.7L238.4,367.9z"
			/>
		<path class="st10" d="M244.8,368.4c0-3.6,1.8-5.7,4.3-5.7s4.3,2.1,4.3,5.7c0,3.7-1.8,5.8-4.3,5.8S244.8,372.1,244.8,368.4z
			 M251.9,368.4c0-2.8-1.1-4.5-2.8-4.5c-1.7,0-2.8,1.7-2.8,4.5c0,2.9,1.1,4.6,2.8,4.6C250.8,373,251.9,371.3,251.9,368.4z"/>
		<path class="st10" d="M256.2,362.9h3.4c2.5,0,4.1,0.8,4.1,3.3c0,2.4-1.7,3.5-4.1,3.5h-1.9v4.4h-1.4V362.9z M259.4,368.5
			c1.9,0,2.9-0.7,2.9-2.3c0-1.6-1-2.1-2.9-2.1h-1.8v4.4H259.4z"/>
		<path class="st10" d="M265.9,372.6l0.8-1c1,1,1.9,1.4,3.2,1.4c1.5,0,2.7-0.8,2.7-2.2c0-1.4-1.1-2.1-3-2.1h-1.3v-1.1h0.9
			c2,0,2.8-0.7,2.8-1.9c0-1.2-0.9-1.8-2.2-1.8c-1,0-2,0.4-2.7,1.1l-0.8-1c0.8-0.8,2.1-1.4,3.5-1.4c2.1,0,3.6,1.1,3.6,2.9
			c0,1.2-0.6,2.1-1.6,2.5v0.1c1.3,0.3,2.2,1.2,2.2,2.8c0,2.1-1.8,3.4-4.1,3.4C268.3,374.2,267,373.7,265.9,372.6z"/>
		<path class="st10" d="M276.6,362.9h1.4v5.8c0,1.2-0.1,2.4-0.2,3.5h0l1.1-2.3l3.7-7h1.6V374h-1.4v-5.8c0-1.2,0.1-2.3,0.2-3.5h0
			l-1.1,2.3l-3.7,7h-1.6V362.9z"/>
		<path class="st10" d="M287,362.9h1.4v4.7h4.6v-4.7h1.4V374H293v-5.2h-4.6v5.2H287V362.9z"/>
		<path class="st10" d="M300.3,362.9h1.6l3.8,11.2h-1.5l-1.9-6.2c-0.4-1.2-0.8-2.5-1.1-3.8h-0.1c-0.4,1.3-0.7,2.5-1.1,3.8l-2,6.2
			h-1.5L300.3,362.9z M298.6,369.5h5.1v1.2h-5.1V369.5z"/>
	</g>
	<g>
		<path class="st8" d="M278.1,189.5c0,3.6-0.8,6.4-2.3,8.5c-1.5,2.1-3.6,3.1-6.3,3.1c-2.7,0-4.8-1.1-6.3-3.2c-1.5-2.1-2.3-5-2.3-8.7
			c0-3.7,0.8-6.6,2.3-8.7c1.5-2.1,3.6-3.1,6.3-3.1c2.7,0,4.8,1.1,6.3,3.2C277.4,182.7,278.1,185.7,278.1,189.5z M266.7,189.3
			c0,2.5,0.2,4.3,0.7,5.5c0.5,1.1,1.2,1.7,2.2,1.7c1,0,1.7-0.6,2.2-1.7c0.5-1.2,0.7-3,0.7-5.4c0-2.5-0.2-4.3-0.7-5.4
			c-0.5-1.2-1.2-1.7-2.2-1.7c-1,0-1.8,0.6-2.2,1.7C266.9,184.9,266.7,186.8,266.7,189.3z"/>
	</g>
</g>
<g id="Floor">
	<g>
		<g>
			<path class="st10" d="M485.2,445.6c0,0.1-105.3,0.3-235.2,0.3c-129.9,0-235.2-0.1-235.2-0.3c0-0.1,105.3-0.3,235.2-0.3
				C379.9,445.3,485.2,445.4,485.2,445.6z"/>
		</g>
	</g>
</g>
<g id="Character">
	<g>
		<g>
			<path class="st13" d="M198.4,434.2l2.9,11l32.2-0.3c0,0-4.4-3.3-20.6-3.1l-1.6-7.6H198.4z"/>
		</g>
		<g>
			<g>
				<path class="st9" d="M163.3,309.9l-24.1,2.3l-9.8,2.8c-4.2,1.2-8,3.4-11.2,6.4l-31.6,30.3l-5.8-47.1L65,305.9l2.6,60.7
					c2.4,7.4,9.2,12.6,17.2,12.6c4.7,0,9.3-2,12.7-5.2l22.5-21.2l-2.2,27.9l-7.7,17.4l55.2,31.2c0,0,6.5-32.1,10-54.3
					c2.8-18,4.3-57.1,4.3-57.1L163.3,309.9z"/>
			</g>
			<g>
				<path class="st9" d="M178.1,317.2c0,0,12.2,4.5,15.2,14.1c2.6,8.5,11.4,56.2,11.4,56.2l8.7,50.5l-18.2,0.7l-20.9-86.1
					L178.1,317.2z"/>
			</g>
			<g>
				<g>
					<path class="st10" d="M117.3,379.5c-0.1,0,0.7-9.7,1.8-21.6c1.1-11.9,2.2-21.6,2.3-21.5c0.1,0-0.7,9.7-1.8,21.6
						C118.5,369.8,117.5,379.5,117.3,379.5z"/>
				</g>
			</g>
			<g>
				<g>
					<path class="st10" d="M157.6,355.7c0,0,0,0.2-0.2,0.5c-0.1,0.4-0.3,0.8-0.6,1.3c-0.2,0.6-0.5,1.3-1,2c-0.4,0.8-0.8,1.7-1.5,2.6
						c-0.3,0.5-0.6,1-0.9,1.5c-0.3,0.5-0.7,1-1.1,1.5c-0.7,1.1-1.6,2.2-2.6,3.3c-1.9,2.2-4.2,4.5-6.9,6.6c-2.7,2.1-5.4,3.8-8,5.2
						c-1.3,0.6-2.6,1.3-3.8,1.7c-0.6,0.2-1.2,0.5-1.8,0.7c-0.6,0.2-1.1,0.4-1.7,0.6c-1,0.4-2,0.6-2.9,0.8c-0.8,0.2-1.6,0.4-2.2,0.5
						c-0.6,0.1-1,0.2-1.4,0.2c-0.3,0-0.5,0.1-0.5,0c0,0,0.2-0.1,0.5-0.2c0.4-0.1,0.8-0.2,1.4-0.3c0.6-0.1,1.3-0.3,2.2-0.6
						c0.8-0.3,1.8-0.5,2.8-0.9c0.5-0.2,1.1-0.4,1.6-0.6c0.6-0.2,1.1-0.5,1.7-0.7c1.2-0.5,2.4-1.1,3.7-1.8c2.6-1.4,5.3-3.1,7.9-5.2
						c2.6-2.1,4.9-4.4,6.8-6.5c0.9-1.1,1.8-2.2,2.6-3.2c0.4-0.5,0.8-1,1.1-1.5c0.3-0.5,0.6-1,0.9-1.5c0.6-0.9,1.1-1.8,1.5-2.6
						c0.4-0.8,0.8-1.4,1-2c0.3-0.5,0.5-0.9,0.6-1.3C157.5,355.9,157.5,355.7,157.6,355.7z"/>
				</g>
			</g>
			<g class="st14">
				<g>
					<path d="M123.8,384.4c-1.8-0.5-2.7-2.7-2.2-4.4c0.5-1.8,1.9-3.1,3.6-3.9c1.7-0.8,3.5-1.1,5.3-1.6c7.7-1.9,14.9-5.9,20.5-11.5
						c0.5-0.5,1.3-1.1,1.9-0.7c0.9,0.5,0.3,1.8-0.3,2.6c-7.8,9-18,15.9-29.3,19.7"/>
				</g>
			</g>
			<g>
				<g>
					<path class="st10" d="M178.9,373c0,0-0.2-0.4-0.4-1c-0.2-0.7-0.5-1.6-0.8-2.9c-0.7-2.4-1.5-5.8-2.3-9.5c-0.8-3.7-1.5-7.1-2-9.6
						c-0.2-1.2-0.4-2.2-0.5-2.9c-0.1-0.7-0.1-1.1-0.1-1.1c0,0,0.1,0.4,0.3,1c0.2,0.8,0.4,1.8,0.7,2.9c0.6,2.6,1.3,5.9,2.1,9.5
						c0.8,3.7,1.6,7,2.2,9.5c0.3,1.1,0.5,2.1,0.6,2.9C178.9,372.6,179,373,178.9,373z"/>
				</g>
			</g>
			<g>
				<g>
					<path class="st10" d="M67.8,310.5c-0.1,0-0.4-1.1-0.5-2.4c-0.1-1.3-0.1-2.4,0.1-2.4c0.1,0,0.4,1.1,0.5,2.4
						C67.9,309.4,67.9,310.5,67.8,310.5z"/>
				</g>
			</g>
			<g>
				<g>
					<path class="st10" d="M72.4,310.6c-0.1,0-0.3-1.1-0.4-2.5c-0.1-1.4,0-2.6,0.1-2.6s0.3,1.1,0.4,2.5
						C72.6,309.5,72.5,310.6,72.4,310.6z"/>
				</g>
			</g>
			<g>
				<g>
					<path class="st10" d="M77,310.3c-0.1,0-0.3-1.3-0.4-2.8c-0.1-1.6,0-2.8,0.1-2.9c0.1,0,0.3,1.3,0.4,2.8
						C77.2,309,77.1,310.3,77,310.3z"/>
				</g>
			</g>
			<g>
				<g>
					<path class="st10" d="M85.9,358.9c-0.1,0-0.1-1.9,0.2-4.2c0.2-2.3,0.5-4.1,0.7-4.1c0.1,0,0.1,1.9-0.2,4.2
						C86.3,357.1,86,358.9,85.9,358.9z"/>
				</g>
			</g>
			<g>
				<g>
					<path class="st10" d="M198.1,433.5c0.1,0,0.5,1.1,0.7,2.5c0.2,1.4,0.3,2.6,0.2,2.6c-0.1,0-0.5-1.1-0.7-2.5
						C198.1,434.7,198,433.5,198.1,433.5z"/>
				</g>
			</g>
			<g>
				<g>
					<path class="st10" d="M204.1,433.5c0.1,0,0.4,1,0.6,2.3c0.2,1.3,0.3,2.4,0.1,2.4c-0.1,0-0.4-1-0.6-2.3
						C204,434.5,204,433.5,204.1,433.5z"/>
				</g>
			</g>
			<g>
				<g>
					<path class="st10" d="M209.8,432.9c0.1,0,0.4,1.2,0.6,2.6c0.2,1.4,0.4,2.6,0.3,2.6c-0.1,0-0.6-1.1-0.8-2.6
						C209.6,434.1,209.6,432.9,209.8,432.9z"/>
				</g>
			</g>
			<g>
				<g>
					<path class="st10" d="M187.9,323.1c0,0.1-1.3,0-3.2,0.4c-2,0.4-4.6,1.4-6.9,3.4c-2.3,2-3.7,4.5-4.3,6.4
						c-0.7,1.9-0.8,3.2-0.9,3.1c0,0,0-0.3,0-0.9c0.1-0.6,0.2-1.4,0.5-2.4c0.6-2,1.9-4.6,4.3-6.7c2.4-2.1,5.2-3.1,7.2-3.4
						c1-0.2,1.8-0.2,2.4-0.2C187.6,323,187.9,323.1,187.9,323.1z"/>
				</g>
			</g>
			<g>
				<g>
					<path class="st8" d="M195.4,343.6c0,0.1-1.1,0.6-3,1.3c-1.9,0.7-4.5,1.6-7.5,2.6c-2.9,0.9-5.6,1.7-7.6,2.1
						c-2,0.5-3.2,0.7-3.2,0.7c0-0.1,1.2-0.4,3.1-1c2.1-0.6,4.7-1.4,7.5-2.3c2.9-0.9,5.4-1.7,7.5-2.4
						C194.2,343.9,195.4,343.6,195.4,343.6z"/>
				</g>
			</g>
			<g>
				<g>
					<path class="st8" d="M203.1,378.4c0,0.1-1.2,0.4-3.1,0.8c-1.9,0.5-4.6,1.1-7.6,1.7c-3,0.6-5.7,1.2-7.7,1.5
						c-2,0.4-3.2,0.6-3.2,0.5c0-0.1,1.2-0.4,3.1-0.8c1.9-0.5,4.6-1.1,7.6-1.7c3-0.6,5.7-1.2,7.7-1.5
						C201.8,378.6,203.1,378.4,203.1,378.4z"/>
				</g>
			</g>
			<g>
				<g>
					<path class="st8" d="M211.8,422c0,0.1-1.1,0.1-3,0.2c-1.9,0-4.4,0.1-7.2,0.3c-2.8,0.2-5.4,0.4-7.2,0.5c-1.8,0.2-3,0.3-3,0.2
						c0-0.1,1.1-0.3,3-0.6c1.8-0.3,4.4-0.5,7.2-0.7c2.8-0.2,5.4-0.2,7.3-0.1C210.7,421.9,211.8,422,211.8,422z"/>
				</g>
			</g>
			<g>
				<g>
					<path class="st8" d="M131.7,381.1c0,0.1-0.8-0.3-2.1-0.9c-1.4-0.7-3.1-1.5-4.9-2.3c-1.8-0.9-3.5-1.6-4.9-2.3
						c-1.3-0.6-2-1-2-1.1c0-0.1,0.8,0.2,2.1,0.7c1.3,0.5,3.1,1.3,5,2.2c1.9,0.9,3.6,1.8,4.8,2.5C131,380.5,131.7,381,131.7,381.1z"
						/>
				</g>
			</g>
			<g>
				<g>
					<path class="st8" d="M171.9,387.9c0,0-0.4-0.1-1.2-0.4c-0.8-0.4-1.9-0.8-3.1-1.4c-2.7-1.2-6.3-2.7-10.4-4.4
						c-4.1-1.6-7.9-3-10.6-4c-1.3-0.5-2.4-0.9-3.2-1.2c-0.8-0.3-1.2-0.5-1.2-0.5c0,0,0.4,0.1,1.2,0.3c0.8,0.2,1.9,0.6,3.3,1
						c2.8,0.9,6.5,2.2,10.6,3.9c4.1,1.6,7.8,3.3,10.4,4.5c1.3,0.6,2.4,1.1,3.1,1.5C171.5,387.6,171.9,387.9,171.9,387.9z"/>
				</g>
			</g>
			<g>
				<g>
					<path class="st8" d="M175,359.5c0,0-0.2,0-0.6,0c-0.4-0.1-1-0.1-1.6-0.2c-1.5-0.2-3.4-0.6-5.9-0.9c-4.9-0.8-11.8-1.9-19.4-3
						c-7.6-1.1-14.4-2-19.4-2.7c-2.4-0.3-4.4-0.6-5.9-0.8c-0.6-0.1-1.2-0.2-1.6-0.2c-0.4-0.1-0.6-0.1-0.6-0.1c0,0,0.2,0,0.6,0
						c0.4,0,1,0.1,1.6,0.1c1.4,0.1,3.4,0.3,5.9,0.6c5,0.6,11.9,1.4,19.4,2.5c7.6,1.1,14.4,2.3,19.3,3.2c2.5,0.5,4.5,0.8,5.8,1.1
						c0.6,0.1,1.2,0.2,1.6,0.3C174.9,359.4,175,359.5,175,359.5z"/>
				</g>
			</g>
			<g>
				<g>
					<path class="st8" d="M172.8,329.5c0,0.1-10.8-1.4-24.2-3.3c-13.3-2-24.1-3.7-24.1-3.9c0-0.1,10.8,1.4,24.2,3.3
						C162,327.6,172.8,329.3,172.8,329.5z"/>
				</g>
			</g>
			<g>
				<g>
					<path class="st8" d="M116.1,355.7c-0.1,0-0.6-1.2-1.5-3.2c-1-2.2-2.2-4.9-3.5-7.9c-1.4-3-2.6-5.7-3.6-7.9
						c-0.9-2-1.5-3.3-1.4-3.3c0,0,0.2,0.3,0.5,0.8c0.3,0.5,0.7,1.3,1.2,2.3c1,2,2.3,4.7,3.7,7.8c1.4,3.1,2.6,5.9,3.4,8
						c0.4,1,0.7,1.9,0.9,2.5C116,355.4,116.1,355.7,116.1,355.7z"/>
				</g>
			</g>
			<g>
				<g>
					<path class="st8" d="M94.6,376.8c-0.1,0-1.5-6-3.1-13.5c-1.6-7.5-2.7-13.6-2.6-13.6c0.1,0,1.5,6,3.1,13.5
						C93.5,370.7,94.7,376.8,94.6,376.8z"/>
				</g>
			</g>
			<g>
				<g>
					<path class="st8" d="M85.7,344c0,0.1-4.2,1.2-9.4,2.3c-5.2,1.1-9.5,1.9-9.5,1.8c0-0.1,4.2-1.2,9.4-2.3
						C81.4,344.6,85.6,343.8,85.7,344z"/>
				</g>
			</g>
			<g>
				<g>
					<path class="st8" d="M82.5,316.6c0,0.1-0.9,0.3-2.5,0.5c-1.5,0.3-3.7,0.6-6,0.8c-2.4,0.3-4.5,0.4-6.1,0.5
						c-1.6,0.1-2.5,0.1-2.5,0c0-0.1,0.9-0.2,2.5-0.4c1.7-0.2,3.8-0.4,6-0.7c2.3-0.3,4.3-0.5,6-0.7C81.5,316.6,82.5,316.6,82.5,316.6
						z"/>
				</g>
			</g>
		</g>
		<g>
			<g>
				<g>
					<path class="st7" d="M90.6,269.1c0.3,0.6,7.8,39.2,7.8,39.2l-17.7,0.8l-6.9-33.2L90.6,269.1z"/>
				</g>
				<g>
					<polygon class="st10" points="98.4,308.3 100.5,307.4 92.8,269.4 90.4,269.2 					"/>
				</g>
				<g>
					<path class="st10" d="M83.5,277.6c0.1,0.5-0.3,1-0.8,1c-0.5,0.1-1-0.3-1-0.8c-0.1-0.5,0.3-1,0.8-1
						C83,276.7,83.5,277.1,83.5,277.6z"/>
				</g>
			</g>
			<g>
				<path class="st13" d="M79.9,304.7l-0.3-5.1l7.6-3.1l-2.9-7c-1.4-3.3-5.4-4.6-8.5-2.9c-1,0.5-2.1,1.1-3,1.6
					c-2.2,1.2-3.7,3.2-4.3,5.6c-1,4.1-1.8,12.7-1.8,12.3"/>
			</g>
		</g>
		<g>
			<g>
				<path class="st9" d="M59.6,433.3c0,0-31.1,8.6-32.4,9.1c-1.9,0.7-1.6,7.5,1.4,7.4c1.4-0.1,23.9,0.8,26.7,0.7
					c2.8-0.2,11.4-3.6,11.4-3.6L59.6,433.3z"/>
			</g>
			<g>
				<g>
					<path class="st10" d="M46.7,445.2c-0.2,0-0.4-1.6-1.4-3.3c-1-1.7-2.3-2.7-2.2-2.9c0.1-0.1,1.6,0.8,2.7,2.6
						C46.8,443.5,46.8,445.2,46.7,445.2z"/>
				</g>
			</g>
			<g>
				<g>
					<path class="st10" d="M49.9,443.8c-0.2,0-0.5-1.4-1.3-3.1c-0.8-1.6-1.8-2.8-1.7-2.9c0.1-0.1,1.3,0.9,2.2,2.6
						C50,442.2,50,443.7,49.9,443.8z"/>
				</g>
			</g>
			<g>
				<g>
					<path class="st10" d="M53,442.9c-0.2,0,0-1.6-0.7-3.3c-0.7-1.7-1.8-2.8-1.7-2.9c0.1-0.1,1.5,0.8,2.2,2.7
						C53.5,441.3,53.1,443,53,442.9z"/>
				</g>
			</g>
			<g>
				<g>
					<path class="st10" d="M52.4,438.9c-0.1,0-0.3-0.9-0.3-2.3c0-0.7,0.1-1.6,0.3-2.5c0.1-0.5,0.3-1,0.5-1.4
						c0.1-0.2,0.2-0.5,0.5-0.8c0.3-0.3,0.8-0.2,1.1,0.1c0.3,0.2,0.4,0.6,0.4,0.9c0,0.3,0,0.6,0,0.8c0,0.5-0.1,1-0.2,1.5
						c-0.2,1-0.6,1.7-1,2.4c-0.7,1.3-1.4,1.9-1.4,1.9c-0.1,0,0.5-0.8,1.1-2c0.3-0.6,0.6-1.4,0.8-2.3c0.1-0.4,0.1-0.9,0.2-1.4
						c0-0.5,0-1.1-0.3-1.3c-0.1-0.1-0.3-0.1-0.4,0c-0.1,0.1-0.3,0.3-0.3,0.5c-0.2,0.5-0.3,0.9-0.5,1.4c-0.2,0.9-0.4,1.7-0.4,2.4
						C52.3,438,52.5,438.9,52.4,438.9z"/>
				</g>
			</g>
			<g>
				<g>
					<path class="st10" d="M52.4,438.6c0-0.1,0.7-0.3,2-0.3c0.6,0,1.4,0.1,2.2,0.3c0.4,0.1,0.8,0.2,1.3,0.5c0.4,0.2,0.9,0.8,0.7,1.4
						c-0.1,0.6-0.6,1-1.1,1.1c-0.5,0.1-1,0.1-1.4,0c-0.9-0.2-1.5-0.6-2-1c-1-0.8-1.5-1.4-1.4-1.4c0.1-0.1,0.6,0.4,1.7,1.1
						c0.5,0.3,1.1,0.7,1.9,0.8c0.4,0.1,0.8,0.1,1.2,0c0.4-0.1,0.7-0.4,0.8-0.7c0.1-0.3-0.1-0.7-0.5-0.9c-0.3-0.2-0.7-0.3-1.1-0.4
						c-0.8-0.2-1.5-0.3-2.1-0.4C53.2,438.6,52.5,438.7,52.4,438.6z"/>
				</g>
			</g>
			<g>
				<g>
					<path class="st10" d="M41.9,445.6c-0.2,0,0-1.3-0.6-2.8c-0.6-1.5-1.6-2.3-1.5-2.4c0.1-0.1,1.4,0.6,2,2.2
						C42.4,444.2,42,445.6,41.9,445.6z"/>
				</g>
			</g>
			<g>
				<g>
					<path class="st10" d="M63.6,447c0,0-0.4,0.2-1.2,0.6c-0.8,0.3-2,0.7-3.5,1.1c-3,0.7-7.2,1.2-11.9,1.1
						c-4.7-0.1-8.9-0.3-11.9-0.4c-1.4-0.1-2.7-0.1-3.6-0.2c-0.9-0.1-1.3-0.1-1.3-0.1c0,0,0.5-0.1,1.3-0.1c1,0,2.2,0,3.6,0
						c3.2,0.1,7.3,0.1,11.9,0.2c4.6,0,8.8-0.3,11.8-1C61.8,447.7,63.6,446.9,63.6,447z"/>
				</g>
			</g>
			<g>
				<g>
					<path class="st10" d="M64.5,447.7c0,0.1-0.9-0.4-2.3-1.1c-1.4-0.6-3.6-1.3-5.9-1c-2.3,0.4-4,1.9-5.1,3
						c-1.1,1.1-1.7,1.9-1.8,1.8c0,0,0.5-0.9,1.5-2.1c0.5-0.6,1.2-1.3,2.1-1.9c0.9-0.6,2-1.2,3.2-1.4c2.5-0.4,4.7,0.5,6.1,1.2
						C63.8,447,64.5,447.7,64.5,447.7z"/>
				</g>
			</g>
		</g>
		<g>
			<g>
				<path class="st9" d="M92.7,424.8c0,0,29.4,19.3,30.5,20.1c1.6,1.2-0.2,6.9-3,5.9c-1.3-0.5-26-7.3-28.7-8.4
					c-2.7-1-9.8-6.9-9.8-6.9L92.7,424.8z"/>
			</g>
			<g>
				<g>
					<path class="st10" d="M101.4,440c-0.1,0,0.4-1.7,2-3.2c1.6-1.4,3.3-1.8,3.3-1.7c0.1,0.1-1.5,0.7-3,2.1
						C102.2,438.6,101.5,440.1,101.4,440z"/>
				</g>
			</g>
			<g>
				<g>
					<path class="st10" d="M98.8,437.6c-0.1,0,0.4-1.5,1.8-2.9c1.3-1.4,2.8-2,2.9-1.9c0.1,0.1-1.2,0.9-2.5,2.2
						C99.6,436.4,98.9,437.7,98.8,437.6z"/>
				</g>
			</g>
			<g>
				<g>
					<path class="st10" d="M96.1,435.9c-0.1,0,0-1.7,1.3-3.2c1.3-1.6,2.9-2.1,2.9-1.9c0.1,0.1-1.3,0.8-2.5,2.3
						C96.6,434.4,96.3,436,96.1,435.9z"/>
				</g>
			</g>
			<g>
				<g>
					<path class="st10" d="M97.9,432.3c-0.1,0,0.3-0.8,0.7-2.2c0.2-0.7,0.3-1.5,0.3-2.4c0-0.5,0-0.9,0-1.5c0-0.2-0.1-0.5-0.2-0.6
						c-0.1-0.1-0.2-0.2-0.4-0.1c-0.3,0.1-0.5,0.7-0.7,1.2c-0.1,0.5-0.2,0.9-0.3,1.4c-0.1,0.9,0,1.8,0.1,2.5c0.2,1.4,0.5,2.2,0.4,2.3
						c-0.1,0-0.5-0.8-0.8-2.2c-0.1-0.7-0.3-1.6-0.2-2.6c0-0.5,0.1-1,0.3-1.5c0.1-0.3,0.2-0.5,0.3-0.8c0.1-0.3,0.3-0.6,0.7-0.7
						c0.3-0.2,0.8-0.1,1,0.3c0.2,0.3,0.2,0.6,0.2,0.9c0,0.5,0,1,0,1.5c-0.1,1-0.3,1.8-0.5,2.5C98.4,431.5,97.9,432.3,97.9,432.3z"/>
				</g>
			</g>
			<g>
				<g>
					<path class="st10" d="M97.9,431.9c0,0.1-0.7-0.3-1.9-0.6c-0.6-0.1-1.3-0.3-2.1-0.3c-0.4,0-0.8,0-1.2,0.1
						c-0.4,0.1-0.7,0.3-0.7,0.7c0,0.4,0.2,0.7,0.5,0.9c0.3,0.2,0.7,0.3,1.1,0.4c0.8,0.1,1.5-0.1,2.1-0.2c1.2-0.3,1.9-0.6,1.9-0.6
						c0,0.1-0.6,0.5-1.8,0.9c-0.6,0.2-1.4,0.4-2.2,0.3c-0.4,0-0.9-0.1-1.3-0.4c-0.4-0.3-0.8-0.8-0.7-1.4c0-0.6,0.6-1.1,1.1-1.1
						c0.5-0.1,0.9-0.1,1.4-0.1c0.8,0.1,1.6,0.2,2.2,0.4C97.3,431.4,97.9,431.9,97.9,431.9z"/>
				</g>
			</g>
			<g>
				<g>
					<path class="st10" d="M116.4,449.7c0,0-0.5-0.3-0.7-1.1c-0.2-0.8-0.1-2.1,0.6-3.2c0.3-0.6,0.7-1,1-1.5c0.3-0.4,0.7-0.8,1-1.1
						c0.3-0.3,0.7-0.4,0.9-0.4c0.2,0,0.4,0.1,0.4,0.1c0,0.1-0.5,0-1.1,0.6c-0.3,0.3-0.6,0.6-0.8,1.1c-0.3,0.4-0.6,0.9-0.9,1.4
						c-0.6,1-0.8,2.1-0.6,2.9C116.2,449.2,116.5,449.6,116.4,449.7z"/>
				</g>
			</g>
			<g>
				<g>
					<path class="st10" d="M105.9,441.8c-0.1,0-0.1-1.5,1-2.8c1.1-1.4,2.6-1.7,2.6-1.5c0.1,0.1-1.2,0.6-2.2,1.9
						C106.3,440.5,106,441.8,105.9,441.8z"/>
				</g>
			</g>
			<g>
				<g>
					<path class="st10" d="M84.7,436.6c0,0,0.5,0.3,1.3,0.9c0.8,0.6,2,1.4,3.6,2.2c1.6,0.9,3.5,1.7,5.8,2.6c2.2,0.8,4.7,1.6,7.4,2.4
						c5.3,1.5,10.1,2.9,13.6,4c1.7,0.5,3,0.9,4.1,1.3c1,0.3,1.5,0.5,1.5,0.5c0,0-0.6-0.1-1.5-0.3c-1.1-0.3-2.5-0.7-4.1-1.1
						c-3.5-1-8.3-2.3-13.6-3.8c-2.6-0.8-5.2-1.6-7.4-2.4c-2.2-0.9-4.2-1.8-5.8-2.7c-1.6-0.9-2.8-1.8-3.6-2.4
						C85.1,437,84.7,436.6,84.7,436.6z"/>
				</g>
			</g>
			<g>
				<g>
					<path class="st10" d="M83.6,436.9c0-0.1,0.9-0.4,2.5-0.7c1.6-0.2,3.9-0.4,6.2,0.8c1.1,0.6,2,1.4,2.6,2.3
						c0.6,0.9,1.1,1.7,1.4,2.5c0.6,1.5,0.9,2.4,0.8,2.4c-0.1,0-0.5-0.9-1.2-2.3c-0.7-1.4-1.8-3.4-3.9-4.4c-2.1-1.1-4.4-1-5.9-0.9
						C84.6,436.8,83.7,437,83.6,436.9z"/>
				</g>
			</g>
		</g>
		<g>
			<g>
				<g>
					<g>
						<g>
							<g>
								<g>
									<g>
										<g>
											<g>
												<g>
													<g>
														<g>
															<path class="st13" d="M161.7,272l1.9,38.9c0.3,6.6-4.9,12.2-11.6,12.2l0,0c-6.2,0-11.3-4.9-11.6-11
																c-0.1-2.9-0.3-5.4-0.3-5.7c0,0-9.9-0.4-11.1-10.2c-0.6-4.7-1-14.5-1.2-23.4c-0.3-9.5,6.8-17.7,16.3-18.7l0.9-0.1
																C155.2,253.4,161.4,261.8,161.7,272z"/>
														</g>
													</g>
												</g>
											</g>
										</g>
									</g>
								</g>
								<g>
									<g>
										<g>
											<g>
												<g>
													<g>
														<g>
															<path class="st15" d="M140.1,306.2c0,0,6.2-0.2,12.3-5c0,0-2.2,7.4-12.1,7.6L140.1,306.2z"/>
														</g>
													</g>
												</g>
											</g>
										</g>
									</g>
								</g>
							</g>
						</g>
					</g>
					<g>
						<g>
							<g>
								<g>
									<g>
										<g>
											<g>
												<g>
													<g>
														<g>
															<g>
																<g>
																	<g>
																		<path class="st10" d="M130.9,278.8c0.1,0.7,0.7,1.3,1.5,1.3c0.8,0,1.4-0.7,1.3-1.4c-0.1-0.7-0.7-1.3-1.5-1.3
																			C131.4,277.5,130.8,278.1,130.9,278.8z"/>
																	</g>
																</g>
															</g>
														</g>
													</g>
												</g>
											</g>
											<g>
												<g>
													<g>
														<g>
															<g>
																<g>
																	<g>
																		<g>
																			<path class="st10" d="M130.4,277.3c0.2,0.2,1.2-0.7,2.7-0.9c1.5-0.2,2.7,0.5,2.8,0.3c0.1-0.1-0.1-0.4-0.7-0.7
																				c-0.5-0.3-1.4-0.5-2.3-0.4c-0.9,0.1-1.7,0.5-2.1,0.9C130.4,276.9,130.3,277.2,130.4,277.3z"/>
																		</g>
																	</g>
																</g>
															</g>
														</g>
													</g>
												</g>
											</g>
										</g>
										<g>
											<g>
												<g>
													<g>
														<g>
															<g>
																<g>
																	<g>
																		<path class="st10" d="M145.6,277.6c0.1,0.7,0.7,1.3,1.5,1.3c0.8,0,1.4-0.7,1.3-1.4c-0.1-0.7-0.7-1.3-1.5-1.3
																			C146.1,276.2,145.6,276.8,145.6,277.6z"/>
																	</g>
																</g>
															</g>
														</g>
													</g>
												</g>
											</g>
											<g>
												<g>
													<g>
														<g>
															<g>
																<g>
																	<g>
																		<g>
																			<path class="st10" d="M145.2,276c0.2,0.2,1.2-0.7,2.7-0.9c1.5-0.2,2.7,0.5,2.8,0.3c0.1-0.1-0.1-0.4-0.7-0.7
																				c-0.5-0.3-1.4-0.5-2.3-0.4c-0.9,0.1-1.7,0.5-2.1,0.9C145.2,275.5,145.1,275.9,145.2,276z"/>
																		</g>
																	</g>
																</g>
															</g>
														</g>
													</g>
												</g>
											</g>
										</g>
										<g>
											<g>
												<g>
													<g>
														<g>
															<g>
																<g>
																	<g>
																		<path class="st10" d="M141,287.7c0-0.1-1-0.1-2.5-0.2c-0.4,0-0.8,0-0.9-0.3c-0.1-0.3,0-0.7,0.1-1.2
																			c0.3-1,0.5-2,0.8-3c1.1-4.3,1.9-7.9,1.7-7.9c-0.2,0-1.2,3.4-2.3,7.8c-0.3,1.1-0.5,2.1-0.8,3.1
																			c-0.1,0.5-0.3,1,0,1.5c0.1,0.3,0.4,0.5,0.7,0.5c0.3,0,0.5,0,0.7,0C140,287.9,141,287.8,141,287.7z"/>
																	</g>
																</g>
															</g>
														</g>
													</g>
												</g>
											</g>
										</g>
										<g>
											<g>
												<g>
													<g>
														<g>
															<g>
																<g>
																	<g>
																		<path class="st10" d="M145.5,288.3c-0.2,0-0.1,1.6-1.3,3c-1.3,1.3-3,1.3-3,1.6c0,0.1,0.4,0.3,1.2,0.2
																			c0.7-0.1,1.7-0.4,2.5-1.2c0.8-0.8,1-1.8,1-2.5C145.8,288.6,145.6,288.2,145.5,288.3z"/>
																	</g>
																</g>
															</g>
														</g>
													</g>
												</g>
											</g>
										</g>
									</g>
								</g>
							</g>
							<g>
								<g>
									<g>
										<g>
											<g>
												<g>
													<g>
														<path class="st10" d="M144.1,270.1c0.2,0.4,1.7,0,3.5,0.1c1.8,0,3.3,0.3,3.5-0.1c0.1-0.2-0.2-0.5-0.8-0.9
															c-0.6-0.3-1.6-0.6-2.6-0.6c-1.1,0-2,0.3-2.6,0.6C144.4,269.6,144.1,269.9,144.1,270.1z"/>
													</g>
												</g>
											</g>
										</g>
									</g>
								</g>
							</g>
							<g>
								<g>
									<g>
										<g>
											<g>
												<g>
													<g>
														<path class="st10" d="M130.5,272.9c0.3,0.3,1.3-0.2,2.5-0.3c1.2-0.2,2.3,0,2.5-0.4c0.1-0.2-0.1-0.5-0.6-0.8
															c-0.5-0.3-1.3-0.5-2.1-0.3c-0.9,0.1-1.6,0.5-2,0.9C130.4,272.4,130.3,272.7,130.5,272.9z"/>
													</g>
												</g>
											</g>
										</g>
									</g>
								</g>
							</g>
						</g>
					</g>
					<g>
						<g>
							<g>
								<g>
									<g>
										<g>
											<g>
												<g>
													<path class="st13" d="M161.7,279.3c0.2-0.1,6.5-2.7,7,4c0.5,6.7-6.3,5.8-6.3,5.7C162.3,288.8,161.7,279.3,161.7,279.3z
														"/>
												</g>
											</g>
										</g>
									</g>
								</g>
							</g>
						</g>
						<g>
							<g>
								<g>
									<g>
										<g>
											<g>
												<g>
													<g>
														<path class="st15" d="M164.2,286.3c0,0,0.1,0.1,0.3,0.1c0.2,0.1,0.5,0.1,0.9-0.1c0.7-0.3,1.2-1.5,1.1-2.7
															c0-0.6-0.2-1.2-0.5-1.6c-0.2-0.5-0.6-0.8-0.9-0.8c-0.4-0.1-0.6,0.2-0.7,0.4c-0.1,0.2,0,0.3-0.1,0.3
															c0,0-0.2-0.1-0.1-0.4c0-0.1,0.1-0.3,0.2-0.4c0.2-0.1,0.4-0.2,0.6-0.2c0.5,0,1,0.4,1.3,0.9c0.3,0.5,0.5,1.2,0.6,1.8
															c0.1,1.4-0.5,2.7-1.5,3c-0.5,0.2-0.9,0-1.1-0.1C164.2,286.4,164.2,286.3,164.2,286.3z"/>
													</g>
												</g>
											</g>
										</g>
									</g>
								</g>
							</g>
						</g>
					</g>
				</g>
			</g>
			<g>
				<g>
					<g>
						<path class="st10" d="M165.4,278.7c-1-0.1-2.7,1-3,2c-0.3,1-0.3,2.1-0.6,3.1s-1.2,2-2.3,1.8c-0.7-0.1-1.3-0.7-1.6-1.4
							c-0.3-0.7-0.3-1.4-0.3-2.2c0-3.2,0.4-6.3,0.1-9.5c-0.2-3.2-1-6.4-3-8.9c-1.9-2.5-5.2-4.1-8.3-3.5c-2.1,0.4-3.8,1.7-5.9,2.2
							c-2.4,0.6-5.1,0-7-1.5c-0.2-0.2-1.4-0.8-1.4-0.8c0-0.2,0-1.6,0.5-2.1c3.7-4.2,10.9-6.1,16.5-5.3c5.6,0.8,11,4,13.9,8.8
							C166,266.3,166.1,273.4,165.4,278.7"/>
					</g>
				</g>
			</g>
		</g>
		<g>
			<g>
				<path class="st10" d="M56.1,433c0,0,72.2-47.4,75.2-48.4c3-1,10.1-5.7,17.2-3.7c7.1,2,13.6,8.4,16.8,17.7
					c3.2,9.4,3.4,30.3,3.4,30.3s-5.7,16.5-16.8,20c-0.9,0.3-1.9,0.5-2.9,0.7c-13.5,2.7-27.3-3.5-34.9-15.1l-1.6-2.5
					c0,0-47.2,17.4-48,17.1L56.1,433z"/>
			</g>
			<g>
				<path class="st10" d="M31.5,377.7c0,0-8.8,3.2-8.9,13.1c-0.1,19,38.3,39.9,38.3,39.9l51.1-33.9v-3.6
					C112,393.3,46.3,369.6,31.5,377.7z"/>
			</g>
			<g>
				<g>
					<path class="st7" d="M145.4,420c0,0-0.1,0.1-0.4,0.2c-0.3,0.1-0.7,0.3-1.2,0.5c-1.1,0.4-2.6,1-4.6,1.8c-4,1.5-9.8,3.7-17,6.4
						c-7.2,2.7-15.9,5.9-25.6,9.4c-9.7,3.5-20.5,7.4-32,11.3l-0.2,0.1l-0.1-0.2c-1.8-3.4-3.7-7.1-5.6-10.8c-1-1.9-2-3.8-2.9-5.5
						l-0.1-0.2l0.2-0.1c21.7-13.8,41.1-26.1,55.1-35c7-4.4,12.6-8,16.5-10.4c1.9-1.2,3.4-2.2,4.5-2.8c0.5-0.3,0.9-0.5,1.2-0.7
						c0.3-0.2,0.4-0.2,0.4-0.2s-0.1,0.1-0.4,0.3c-0.3,0.2-0.7,0.4-1.1,0.8c-1,0.7-2.5,1.6-4.4,2.9c-3.9,2.5-9.5,6.1-16.5,10.6
						c-14,8.9-33.3,21.3-55,35.1l0.1-0.3c0.9,1.7,1.9,3.6,2.9,5.5c1.9,3.7,3.8,7.3,5.6,10.8l-0.3-0.1c11.5-3.9,22.3-7.7,32-11.2
						c9.7-3.5,18.4-6.7,25.6-9.3c7.2-2.7,13-4.8,17.1-6.3c2-0.7,3.5-1.3,4.6-1.7c0.5-0.2,0.9-0.3,1.2-0.4
						C145.3,420,145.4,420,145.4,420z"/>
				</g>
			</g>
			<g>
				<g>
					<path class="st7" d="M86.2,413.9c0,0-0.5-0.3-1.3-0.9c-0.8-0.6-2-1.5-3.5-2.6c-2.9-2.3-6.9-5.5-11.2-9.1
						c-4.3-3.7-8.1-7.1-10.7-9.7c-1.3-1.3-2.4-2.3-3.1-3.1c-0.7-0.7-1.1-1.2-1.1-1.2c0,0,0.5,0.3,1.2,1c0.8,0.8,1.9,1.7,3.2,2.9
						c2.7,2.5,6.5,5.9,10.8,9.6c4.3,3.7,8.2,6.9,11.1,9.3c1.4,1.1,2.5,2.1,3.4,2.8C85.7,413.5,86.2,413.9,86.2,413.9z"/>
				</g>
			</g>
			<g>
				<g>
					<path class="st7" d="M45.9,384.8c0-0.1,2.3-0.4,4.9,0.4c2.7,0.8,4.5,2.2,4.4,2.3c-0.1,0.1-1.9-1.1-4.5-1.8
						C48.1,385,45.9,385,45.9,384.8z"/>
				</g>
			</g>
			<g>
				<g>
					<path class="st7" d="M50.3,381.8c0-0.1,1.7,0.6,3,2.3c1.4,1.7,1.7,3.4,1.6,3.4c-0.1,0.1-0.7-1.5-2-3.1
						C51.7,382.9,50.2,382,50.3,381.8z"/>
				</g>
			</g>
			<g>
				<g>
					<path class="st10" d="M28.7,441.9c0-0.1,0.6-0.2,1.3,0.4c0.7,0.6,1.3,1.7,1.5,3c0.2,1.3-0.1,2.5-0.5,3.3
						c-0.4,0.8-0.8,1.1-0.8,1.1c-0.1,0,0.2-0.5,0.5-1.2c0.3-0.8,0.5-1.9,0.3-3.1c-0.2-1.2-0.7-2.2-1.2-2.8
						C29.2,442,28.6,442,28.7,441.9z"/>
				</g>
			</g>
		</g>
		<g>
			<path class="st13" d="M66.6,302"/>
		</g>
	</g>
</g>
<g id="Plant">
	<g>
		<g>
			<g>
				<rect x="383.1" y="387.4" class="st10" width="69.8" height="9.6"/>
			</g>
			<g>
				<path class="st10" d="M453,397.1h-70v-9.8h70V397.1z M383.2,396.9h69.5v-9.3h-69.5V396.9z"/>
			</g>
		</g>
		<g>
			<g>
				<polygon class="st10" points="389.6,393.8 399.6,443.3 436.8,443.3 446.5,397 				"/>
			</g>
		</g>
		<g>
			<g>
				<polygon class="st7" points="389.6,438.6 394.9,446 440.1,446 446.5,438.6 				"/>
			</g>
		</g>
		<g>
			<g>
				<g>
					<path class="st10" d="M415.4,395.2c-0.1,0-0.3-22.9-0.4-51.3c-0.1-28.3,0-51.3,0.1-51.3c0.1,0,0.3,22.9,0.4,51.3
						C415.6,372.3,415.5,395.2,415.4,395.2z"/>
				</g>
			</g>
		</g>
		<g>
			<g>
				<g>
					<path class="st10" d="M430.9,337.8c0,0,0,0.2-0.2,0.5c-0.2,0.4-0.4,0.9-0.6,1.5c-0.1,0.3-0.3,0.7-0.5,1.1
						c-0.1,0.4-0.3,0.8-0.5,1.3c-0.2,0.5-0.3,1-0.5,1.5c-0.2,0.5-0.3,1.1-0.5,1.7c-0.8,2.4-1.4,5.3-2,8.5c-0.5,3.3-0.9,6.9-1.1,10.7
						c-0.3,7.6,0.1,14.5,0.6,19.5c0.2,2.5,0.5,4.5,0.6,5.9c0.1,0.7,0.1,1.2,0.2,1.6c0,0.4,0,0.6,0,0.6c0,0-0.1-0.2-0.1-0.5
						c-0.1-0.4-0.2-0.9-0.3-1.6c-0.2-1.4-0.5-3.4-0.8-5.9c-0.6-5-1-11.9-0.7-19.6c0.2-3.8,0.6-7.5,1.1-10.7c0.6-3.3,1.3-6.2,2.1-8.6
						c0.2-0.6,0.4-1.2,0.6-1.7c0.2-0.5,0.4-1,0.6-1.5c0.2-0.5,0.3-0.9,0.5-1.3c0.2-0.4,0.3-0.7,0.5-1.1c0.3-0.6,0.5-1.1,0.7-1.5
						C430.8,338,430.9,337.8,430.9,337.8z"/>
				</g>
			</g>
		</g>
		<g>
			<g>
				<g>
					<path class="st10" d="M429.1,319.2c0,0-0.1,0.3-0.2,0.8c-0.2,0.5-0.4,1.2-0.7,2.1c-0.2,0.5-0.3,1-0.5,1.5
						c-0.2,0.6-0.4,1.2-0.6,1.9c-0.4,1.3-0.9,2.8-1.3,4.5c-0.2,0.8-0.5,1.7-0.7,2.7c-0.2,0.9-0.4,1.9-0.7,2.9
						c-0.5,2-0.8,4.2-1.3,6.4c-0.8,4.6-1.4,9.6-1.9,14.9c-0.4,5.3-0.6,10.4-0.7,15c0,4.6,0,8.8,0.2,12.3c0.1,1.7,0.2,3.3,0.3,4.7
						c0.1,1.4,0.2,2.6,0.3,3.6c0.1,0.9,0.1,1.7,0.2,2.2c0,0.5,0,0.8,0,0.8c0,0-0.1-0.3-0.1-0.8c-0.1-0.6-0.2-1.3-0.3-2.2
						c-0.1-1-0.2-2.2-0.3-3.6c-0.1-1.4-0.3-3-0.3-4.7c-0.2-3.5-0.3-7.7-0.3-12.3c0-4.6,0.2-9.7,0.7-15.1c0.5-5.3,1.2-10.4,2-15
						c0.5-2.3,0.8-4.4,1.3-6.4c0.2-1,0.5-2,0.7-2.9c0.3-0.9,0.5-1.8,0.7-2.7c0.4-1.7,0.9-3.2,1.4-4.5c0.2-0.7,0.4-1.3,0.6-1.8
						c0.2-0.6,0.4-1.1,0.6-1.5c0.3-0.9,0.6-1.6,0.8-2.1C429,319.5,429.1,319.2,429.1,319.2z"/>
				</g>
			</g>
		</g>
		<g>
			<g>
				<g>
					<path class="st10" d="M411,399.3c0,0,0-0.1,0-0.3c0-0.2,0-0.5-0.1-0.8c0-0.7-0.1-1.7-0.2-3c-0.2-2.7-0.4-6.5-0.7-11.2
						c-0.6-9.4-1.5-22.5-3.1-36.8c-0.8-7.2-1.8-14-2.7-20.1c-0.5-3.1-1-6-1.5-8.7c-0.5-2.7-1-5.3-1.5-7.6c-0.5-2.3-1-4.4-1.4-6.2
						c-0.4-1.8-0.8-3.4-1.1-4.7c-0.3-1.3-0.6-2.2-0.7-3c-0.1-0.3-0.1-0.6-0.2-0.8c0-0.2-0.1-0.3,0-0.3c0,0,0,0.1,0.1,0.3
						c0.1,0.2,0.1,0.4,0.2,0.8c0.2,0.7,0.5,1.7,0.8,2.9c0.4,1.3,0.8,2.8,1.2,4.7c0.4,1.8,1,3.9,1.5,6.2c0.5,2.3,1.1,4.8,1.6,7.6
						c0.6,2.7,1,5.7,1.6,8.7c1,6.2,2,13,2.8,20.2c1.6,14.4,2.4,27.4,2.9,36.8c0.3,4.7,0.4,8.5,0.5,11.2c0,1.3,0.1,2.3,0.1,3
						c0,0.3,0,0.6,0,0.8C411,399.2,411,399.3,411,399.3z"/>
				</g>
			</g>
		</g>
		<g>
			<g>
				<path class="st9" d="M414.8,303.8c-0.3-3.3-3.6-5.7-6.9-5.7c-3.3,0-6.3,1.9-8.3,4.5c-2,2.6-3.1,5.7-4,8.9
					c-2.2,7.7-3.4,15.7-2.5,23.6c0.9,7.9,4.2,15.7,9.8,21.3c0.9,0.9,2.1,1.8,3.4,1.5c0.7-0.1,1.3-0.6,1.8-1.1
					c11.2-10.1,17.6-25.2,17.2-40.2c-0.1-3-0.5-6.1-2.1-8.6C421.5,305.4,417.6,302.8,414.8,303.8"/>
			</g>
		</g>
		<g>
			<g>
				<g>
					<path class="st9" d="M390.4,277.7c-1.5,2.8-3.1,5.6-4.6,8.3c-0.1,0.2-0.2,0.4-0.5,0.4c-0.2,0-0.4-0.2-0.6-0.4
						c-4.1-6.2-8.1-12.4-12.2-18.7l2.8-1.6L390.4,277.7z"/>
				</g>
			</g>
			<g class="st14">
				<g>
					<g>
						<path d="M390.4,277.7c-1.5,2.8-3.1,5.6-4.6,8.3c-0.1,0.2-0.2,0.4-0.5,0.4c-0.2,0-0.4-0.2-0.6-0.4c-4.1-6.2-8.1-12.4-12.2-18.7
							l2.8-1.6L390.4,277.7z"/>
					</g>
				</g>
			</g>
			<g>
				<g>
					<path class="st9" d="M415.1,292.7c-13.8-8.2-27.7-16.3-41.5-24.5c-0.4-0.2-0.9-0.5-1-1c-0.2-0.6,0.3-1.2,0.7-1.7
						c5.7-5.9,14-9.3,22.2-8.7c8.2,0.6,16,5.3,20,12.5C419.5,276.5,419.7,285.9,415.1,292.7"/>
				</g>
			</g>
			<g>
				<g>
					<g>
						<path class="st10" d="M379.6,260.4c0,0,0.2,0,0.5-0.1c0.4,0,0.9-0.1,1.6-0.1c1.4,0,3.3,0.1,5.8,0.5c2.4,0.4,5.2,1.2,8.2,2.5
							c3,1.3,6,3.2,8.8,5.7c2.8,2.5,5,5.4,6.6,8.2c1.6,2.8,2.7,5.5,3.3,7.9c0.6,2.4,0.9,4.3,1,5.7c0.1,0.7,0.1,1.2,0.1,1.6
							c0,0.4,0,0.5,0,0.5c0,0-0.1-0.7-0.3-2.1c-0.2-1.3-0.5-3.3-1.2-5.6c-1.3-4.6-4.4-10.8-9.8-15.8c-5.5-5-12-7.4-16.7-8.2
							c-2.4-0.4-4.3-0.6-5.7-0.6C380.3,260.5,379.6,260.5,379.6,260.4z"/>
					</g>
				</g>
			</g>
			<g>
				<g>
					<g>
						<path class="st10" d="M409.5,275.8c0,0.1-0.8,0.4-2.1,1c-1.3,0.5-3.2,1.2-5.2,1.8c-2.1,0.7-4,1.2-5.3,1.5
							c-1.4,0.3-2.2,0.5-2.3,0.4c0-0.1,0.8-0.3,2.2-0.8c1.5-0.5,3.3-1,5.3-1.7c2-0.6,3.7-1.2,5.3-1.7
							C408.6,276,409.4,275.8,409.5,275.8z"/>
					</g>
				</g>
			</g>
			<g>
				<g>
					<g>
						<path class="st10" d="M402.9,258.3c0.1,0,0.4,2.1,0.5,4.6c0.1,2.6-0.1,4.7-0.3,4.6c-0.1,0-0.2-2.1-0.2-4.6
							C402.9,260.4,402.8,258.3,402.9,258.3z"/>
					</g>
				</g>
			</g>
			<g>
				<g>
					<g>
						<path class="st10" d="M373.2,267.8c0-0.1,1.1-0.5,3-1.1c1.9-0.6,4.5-1.3,7.4-2c2.9-0.7,5.6-1.2,7.5-1.6
							c1.9-0.3,3.2-0.5,3.2-0.4c0,0.1-1.2,0.3-3.1,0.8c-1.9,0.4-4.6,1-7.5,1.7c-2.9,0.7-5.5,1.4-7.5,1.9
							C374.5,267.6,373.3,267.9,373.2,267.8z"/>
					</g>
				</g>
			</g>
		</g>
		<g>
			<g>
				<g>
					<path class="st9" d="M396,296.1c-3.6-2.7-7.3-3.2-11.8-3.1c-4.5,0.2-8.8,1.5-12.9,3.3c-7,3.1-13.6,7.6-17.7,14
						c-4.2,6.4-5.6,14.8-2.5,21.8c0.3,0.7,0.7,1.4,1.4,1.7c0.7,0.3,1.6,0.1,2.3-0.2c8-2.6,16-5.2,23.3-9.3c7.3-4.1,14-9.7,17.9-17.1
						c0.9-1.8,1.7-3.7,1.9-5.7C397.9,299.6,397.4,297.5,396,296.1"/>
				</g>
			</g>
			<g>
				<g>
					<g>
						<path class="st10" d="M396,295.2c0,0-0.2,0.1-0.6,0.2c-0.4,0.1-1,0.3-1.7,0.6c-0.4,0.1-0.8,0.3-1.2,0.4
							c-0.4,0.2-0.9,0.4-1.4,0.5c-1,0.4-2.2,0.8-3.4,1.4c-0.6,0.3-1.3,0.6-2,0.9c-0.7,0.3-1.4,0.7-2.1,1.1c-1.4,0.7-2.9,1.6-4.5,2.5
							c-3,1.9-6.3,4.2-9.4,7c-3.1,2.8-5.8,5.7-8.1,8.5c-1.1,1.4-2.2,2.8-3.1,4.1c-0.5,0.7-0.9,1.3-1.3,1.9c-0.4,0.6-0.8,1.2-1.1,1.8
							c-0.7,1.1-1.3,2.3-1.8,3.2c-0.3,0.5-0.5,0.9-0.7,1.3c-0.2,0.4-0.4,0.8-0.6,1.1c-0.3,0.6-0.6,1.2-0.8,1.6
							c-0.2,0.4-0.3,0.5-0.3,0.5c0,0,0.1-0.2,0.2-0.6c0.2-0.4,0.4-1,0.7-1.6c0.2-0.4,0.3-0.7,0.5-1.2c0.2-0.4,0.4-0.9,0.7-1.4
							c0.5-1,1-2.1,1.8-3.2c0.4-0.6,0.7-1.2,1.1-1.8c0.4-0.6,0.9-1.3,1.3-1.9c0.9-1.4,2-2.7,3.1-4.1c2.3-2.8,5-5.8,8.2-8.5
							c3.2-2.8,6.4-5.1,9.5-7c1.6-0.9,3-1.8,4.5-2.5c0.7-0.4,1.4-0.7,2.1-1c0.7-0.3,1.3-0.6,2-0.9c1.2-0.6,2.4-1,3.4-1.3
							c0.5-0.2,1-0.4,1.4-0.5c0.4-0.1,0.9-0.3,1.2-0.4c0.7-0.2,1.3-0.4,1.7-0.5C395.8,295.3,396,295.2,396,295.2z"/>
					</g>
				</g>
			</g>
			<g>
				<g>
					<g>
						<path class="st10" d="M368.2,310.3c0,0.1-3.8,1.4-8.7,2.8c-4.8,1.4-8.8,2.5-8.8,2.3c0-0.1,3.8-1.4,8.7-2.8
							C364.2,311.2,368.1,310.2,368.2,310.3z"/>
					</g>
				</g>
			</g>
			<g>
				<g>
					<g>
						<path class="st10" d="M367.8,329.5c-0.1,0-0.1-1-0.2-2.7c0-1.7-0.1-4,0-6.5c0.1-2.6,0.2-4.9,0.3-6.5c0.1-1.7,0.3-2.7,0.3-2.7
							c0.1,0,0.1,1,0,2.7c-0.1,1.8-0.1,4.1-0.2,6.5c-0.1,2.5-0.1,4.7-0.2,6.5C367.9,328.4,367.9,329.5,367.8,329.5z"/>
					</g>
				</g>
			</g>
			<g>
				<g>
					<g>
						<path class="st10" d="M384.2,321.1c-0.1,0-0.6-4.7-1-10.5c-0.4-5.8-0.6-10.5-0.5-10.5c0.1,0,0.6,4.7,1,10.5
							C384.1,316.4,384.3,321.1,384.2,321.1z"/>
					</g>
				</g>
			</g>
			<g>
				<g>
					<g>
						<path class="st10" d="M363.8,299.6c0-0.1,1.1-0.1,2.8-0.1c1.7,0,4.1,0.1,6.7,0.1c2.6,0.1,5,0.2,6.7,0.3
							c1.7,0.1,2.8,0.2,2.8,0.3c0,0.1-1.1,0.1-2.8,0.1c-1.7,0-4.1-0.1-6.7-0.1c-2.6-0.1-5-0.2-6.7-0.3
							C364.8,299.8,363.8,299.7,363.8,299.6z"/>
					</g>
				</g>
			</g>
		</g>
		<g>
			<g>
				<g>
					<path class="st10" d="M404.8,358.6c0,0,0-0.2-0.1-0.6c0-0.4,0-1-0.1-1.6c-0.1-1.4-0.1-3.5,0-6c0-2.5,0.2-5.5,0.5-8.9
						c0.3-3.3,0.8-7,1.5-10.8c0.7-3.8,1.5-7.4,2.4-10.6c0.9-3.2,1.8-6.1,2.6-8.5c0.8-2.4,1.5-4.3,2.1-5.6c0.3-0.6,0.5-1.1,0.6-1.5
						c0.1-0.3,0.2-0.5,0.3-0.5c0,0,0,0.2-0.2,0.5c-0.1,0.4-0.3,0.9-0.5,1.5c-0.5,1.3-1.2,3.3-1.9,5.7c-0.8,2.4-1.6,5.3-2.5,8.5
						c-0.8,3.2-1.6,6.8-2.3,10.6c-0.7,3.8-1.1,7.4-1.5,10.8c-0.3,3.3-0.5,6.3-0.6,8.9c-0.1,2.5-0.1,4.6-0.1,6c0,0.7,0,1.2,0,1.6
						C404.8,358.4,404.8,358.6,404.8,358.6z"/>
				</g>
			</g>
		</g>
		<g>
			<g>
				<g>
					<path class="st10" d="M407,330.3c0,0-0.6,0.7-1.7,1.8c-1.1,1.1-2.6,2.5-4.3,4c-1.7,1.5-3.4,2.8-4.6,3.8c-1.2,0.9-2,1.5-2,1.4
						c0-0.1,0.7-0.7,1.8-1.7c1.3-1.1,2.8-2.4,4.5-3.9c1.7-1.5,3.2-2.8,4.4-3.9C406.2,330.8,406.9,330.2,407,330.3z"/>
				</g>
			</g>
		</g>
		<g>
			<g>
				<g>
					<path class="st10" d="M420.1,340.8c-0.1,0-0.7-0.9-1.8-2.4c-1.1-1.7-2.5-3.7-4.1-6c-1.6-2.3-3-4.3-4.2-5.9
						c-1.1-1.5-1.7-2.5-1.7-2.5c0.1,0,0.8,0.8,2,2.3c1.2,1.5,2.7,3.5,4.3,5.8c1.6,2.3,3,4.5,4,6.1
						C419.6,339.8,420.2,340.8,420.1,340.8z"/>
				</g>
			</g>
		</g>
		<g>
			<g>
				<g>
					<path class="st10" d="M413.2,307.6c0.1,0.1-4.3,3.1-9.7,6.6c-5.5,3.5-9.9,6.3-10,6.1c-0.1-0.1,4.3-3.1,9.7-6.6
						C408.7,310.2,413.2,307.5,413.2,307.6z"/>
				</g>
			</g>
		</g>
		<g>
			<g>
				<g>
					<path class="st10" d="M425.5,320.8c-0.1,0.1-3-2.6-6.6-6.1c-3.5-3.5-6.3-6.4-6.2-6.5c0.1-0.1,3,2.6,6.6,6.1
						C422.8,317.9,425.6,320.7,425.5,320.8z"/>
				</g>
			</g>
		</g>
		<g>
			<g>
				<g>
					<path class="st9" d="M428.6,320.6l3.7-0.3c2.7-0.2,5.2-1,7.6-2.3c1.1-0.6,2.3-1.3,3.5-1.8c4.6-1.9,9.8-1.5,14.8-1.8
						c8.1-0.4,16.2-2.5,23.5-6c0.4-0.2,0.8-0.5,1-0.9c0.8-1.4-0.7-2.6-1.9-3.4c-6.3-3.9-12.7-7.8-19.9-9.8
						c-7.2-1.9-15.3-1.6-21.4,2.6C432.4,301.8,429.8,312,428.6,320.6"/>
				</g>
			</g>
			<g>
				<g>
					<g>
						<path class="st10" d="M482.8,307c0,0-0.2-0.1-0.6-0.3c-0.4-0.2-1-0.5-1.8-0.9c-1.5-0.8-3.8-2-6.6-3.3
							c-2.8-1.3-6.2-2.8-10.1-3.9c-3.9-1.1-8.5-1.7-13.1-1.1c-4.7,0.6-8.9,2.4-12,5.1c-3.1,2.7-4.9,6-6.2,8.8
							c-1.3,2.8-2.1,5.2-2.7,6.8c-0.3,0.8-0.5,1.4-0.7,1.9c-0.2,0.4-0.2,0.7-0.3,0.6c0,0,0-0.2,0.2-0.7c0.1-0.5,0.3-1.1,0.6-1.9
							c0.5-1.7,1.3-4.1,2.6-6.9c1.3-2.8,3.1-6.2,6.3-9c3.1-2.8,7.5-4.7,12.2-5.3c4.8-0.6,9.4,0,13.3,1.1c4,1.1,7.4,2.7,10.2,4
							c2.8,1.4,5,2.6,6.5,3.5c0.7,0.4,1.3,0.8,1.7,1C482.6,306.9,482.8,307,482.8,307z"/>
					</g>
				</g>
			</g>
			<g>
				<g>
					<g>
						<path class="st10" d="M473.8,311.8c-0.1,0.1-5-3.1-10.9-7.1c-6-4-10.7-7.4-10.7-7.5c0.1-0.1,5,3.1,10.9,7.1
							C469.1,308.4,473.9,311.7,473.8,311.8z"/>
					</g>
				</g>
			</g>
			<g>
				<g>
					<g>
						<path class="st10" d="M469.1,296.8c0,0.1-1.7,0.6-3.8,0.8c-2.1,0.2-3.9,0.1-3.9-0.1c0-0.1,1.7-0.2,3.9-0.4
							C467.4,296.9,469.1,296.7,469.1,296.8z"/>
					</g>
				</g>
			</g>
			<g>
				<g>
					<g>
						<path class="st10" d="M447.2,292.9c0.1,0.1-0.6,1.5-1.6,3.2c-1,1.7-1.9,3-2,3c-0.1-0.1,0.6-1.5,1.6-3.2
							C446.2,294.1,447.1,292.8,447.2,292.9z"/>
					</g>
				</g>
			</g>
			<g>
				<g>
					<g>
						<path class="st10" d="M451.6,314.7c0,0.1-0.9-0.4-2.4-1.3c-1.4-0.9-3.3-2.1-5.4-3.6c-2-1.5-3.8-2.9-5.1-3.9
							c-1.3-1-2.1-1.7-2-1.7c0-0.1,0.9,0.5,2.2,1.5c1.5,1.1,3.2,2.4,5.2,3.8c2,1.5,3.9,2.8,5.3,3.7
							C450.8,314.1,451.6,314.7,451.6,314.7z"/>
					</g>
				</g>
			</g>
		</g>
		<g>
			<g>
				<g>
					<path class="st9" d="M434.1,336.5c-3.6-0.9-7.8,2.5-8.6,6.1c-0.7,3.6,0.6,7.3,2.2,10.7c3.5,7.4,8.4,14.2,14.8,19.3
						c6.4,5.1,14.4,8.4,22.6,8.3c-1.5-7,0.4-14.3-0.4-21.5c-0.7-6.2-3.6-12.2-8.1-16.6c-4.4-4.4-10.4-7.2-16.6-7.9
						C437.7,334.7,435,334.4,434.1,336.5"/>
				</g>
			</g>
			<g>
				<g>
					<g>
						<path class="st10" d="M465.1,380.9c0,0-0.2-0.1-0.5-0.2c-0.3-0.2-0.8-0.5-1.3-0.9c-1.1-0.9-2.4-2.5-3.5-4.7
							c-0.6-1.1-1.2-2.3-1.8-3.6c-0.6-1.3-1.2-2.8-1.9-4.2c-0.7-1.5-1.4-3-2.4-4.5c-0.9-1.5-2-3-3.2-4.4c-2.4-2.9-5.1-5.4-7.3-7.7
							c-2.3-2.4-4.2-4.6-5.6-6.7c-1.4-2.1-2.3-3.9-2.7-5.2c-0.2-0.7-0.4-1.2-0.5-1.5c-0.1-0.4-0.1-0.5-0.1-0.5c0,0,0.2,0.7,0.8,2
							c0.5,1.3,1.4,3.1,2.8,5.1c1.4,2,3.3,4.3,5.6,6.6c2.3,2.3,4.9,4.8,7.4,7.7c1.2,1.4,2.3,2.9,3.3,4.5c0.9,1.5,1.7,3.1,2.4,4.6
							c0.7,1.5,1.3,2.9,1.9,4.3c0.6,1.3,1.2,2.5,1.8,3.6c1.1,2.2,2.3,3.8,3.3,4.7C464.4,380.5,465.2,380.9,465.1,380.9z"/>
					</g>
				</g>
			</g>
			<g>
				<g>
					<g>
						<path class="st10" d="M446.7,375.1c-0.1,0,0-0.9,0.3-2.4c0.3-1.5,0.7-3.5,1.4-5.7c0.6-2.2,1.3-4.2,1.8-5.6
							c0.5-1.4,0.9-2.2,1-2.2c0.1,0-0.2,0.9-0.6,2.3c-0.4,1.4-1,3.4-1.7,5.6c-0.6,2.2-1.1,4.2-1.5,5.6
							C447,374.2,446.7,375.1,446.7,375.1z"/>
					</g>
				</g>
			</g>
			<g>
				<g>
					<g>
						<path class="st10" d="M464.4,357.9c0,0.1-1-0.2-2.5-0.6c-1.5-0.4-3.7-1-6-1.5c-2.4-0.5-4.5-0.9-6.1-1.2
							c-1.6-0.3-2.5-0.5-2.5-0.6c0-0.1,1,0,2.6,0.2c1.6,0.2,3.8,0.6,6.1,1.1c2.4,0.5,4.5,1.1,6,1.6
							C463.5,357.5,464.5,357.8,464.4,357.9z"/>
					</g>
				</g>
			</g>
			<g>
				<g>
					<g>
						<path class="st10" d="M433.4,362.9c-0.1,0,0.1-1.1,0.4-2.8c0.3-1.7,0.8-4,1.5-6.6c0.7-2.6,1.4-4.8,1.9-6.5
							c0.6-1.6,1-2.6,1-2.6c0.1,0-0.2,1.1-0.7,2.7c-0.5,1.7-1.1,4-1.8,6.5c-0.7,2.6-1.2,4.9-1.6,6.6
							C433.7,361.9,433.5,362.9,433.4,362.9z"/>
					</g>
				</g>
			</g>
			<g>
				<g>
					<g>
						<path class="st10" d="M456.3,342.9c0,0.1-4.5-0.2-10-0.8c-5.5-0.6-9.9-1.2-9.9-1.3c0-0.1,4.5,0.2,10,0.8
							C451.8,342.2,456.3,342.7,456.3,342.9z"/>
					</g>
				</g>
			</g>
		</g>
		<g>
			<g>
				<g>
					<path class="st7" d="M453,396.9c0,0.1-15.7,0.2-35,0.2c-19.3,0-35-0.1-35-0.2c0-0.1,15.7-0.2,35-0.2
						C437.3,396.7,453,396.8,453,396.9z"/>
				</g>
			</g>
		</g>
		<g>
			<g>
				<g>
					<path class="st7" d="M442.1,417.1c0,0.1-10.6,0.2-23.6,0.2c-13,0-23.6-0.1-23.6-0.2c0-0.1,10.6-0.2,23.6-0.2
						C431.5,416.9,442.1,417,442.1,417.1z"/>
				</g>
			</g>
		</g>
		<g>
			<g>
				<g>
					<path class="st7" d="M442.5,420c0,0.1-10.6,0.2-23.6,0.2c-13,0-23.6-0.1-23.6-0.2c0-0.1,10.6-0.2,23.6-0.2
						C431.9,419.7,442.5,419.9,442.5,420z"/>
				</g>
			</g>
		</g>
		<g>
			<g>
				<g>
					<path class="st7" d="M442.5,414.7c0,0.1-10.9,0.2-24.4,0.2c-13.5,0-24.4-0.1-24.4-0.2c0-0.1,10.9-0.2,24.4-0.2
						C431.6,414.5,442.5,414.6,442.5,414.7z"/>
				</g>
			</g>
		</g>
	</g>
</g>
</svg>
