<svg width="174" height="154" viewBox="0 0 174 154" fill="none" xmlns="http://www.w3.org/2000/svg">
<path d="M26.0307 64.1289H147.97V129.402H26.0307V64.1289Z" fill="black"/>
<path d="M170.602 35.0863H114.21L97.6555 18.5145C98.7069 16.7004 99.3098 14.5951 99.3098 12.3511C99.3098 5.55828 93.7877 0.0317383 87 0.0317383C80.2123 0.0317383 74.6902 5.55828 74.6902 12.3511C74.6902 14.5951 75.2927 16.7004 76.3445 18.5145L59.7904 35.0863H3.39844C1.52148 35.0863 0 36.6078 0 38.4847V150.57C0 152.446 1.52148 153.968 3.39844 153.968H170.602C172.478 153.968 174 152.446 174 150.57V38.4847C174 36.6078 172.478 35.0863 170.602 35.0863ZM87 6.82861C90.0396 6.82861 92.5129 9.30607 92.5129 12.3511C92.5129 15.3961 90.0399 17.8735 87 17.8735C83.9601 17.8735 81.4871 15.3961 81.4871 12.3511C81.4871 9.30607 83.9604 6.82861 87 6.82861ZM81.2369 23.2346C82.9572 24.1508 84.9191 24.6704 87 24.6704C89.0809 24.6704 91.0428 24.1508 92.7631 23.2346L104.602 35.0863H69.3978L81.2369 23.2346ZM167.203 147.171H6.79688V41.8832H53.0007L50.5908 44.2957C49.2648 45.6235 49.2658 47.7754 50.5936 49.1021C51.2569 49.7648 52.1263 50.0962 52.9952 50.0962C53.8656 50.0962 54.7359 49.7638 55.3996 49.0994L62.6081 41.8835H111.392L118.6 49.0994C119.264 49.7638 120.134 50.0962 121.004 50.0962C121.874 50.0962 122.743 49.7648 123.406 49.1021C124.734 47.7757 124.735 45.6238 123.409 44.2957L120.999 41.8832H167.203V147.171Z" fill="black"/>
<path d="M134.148 83.8086H134.114C132.237 83.8269 130.73 85.363 130.748 87.24L130.876 100.411L120.467 85.3219C119.622 84.0971 118.079 83.5642 116.659 84.0071C115.238 84.4495 114.271 85.7644 114.271 87.2519V111.065C114.271 112.942 115.793 114.464 117.67 114.464C119.546 114.464 121.068 112.942 121.068 111.065V98.1632L130.958 112.5C131.94 113.919 133.584 114.52 135.148 114.032C136.74 113.535 137.768 112.055 137.768 110.228L137.546 87.1747C137.527 85.3083 136.009 83.8086 134.148 83.8086Z" fill="#FBFBFB"/>
<path d="M106.29 90.8237C108.166 90.8237 109.688 89.3019 109.688 87.4253C109.688 85.5487 108.166 84.0269 106.29 84.0269H96.3399C94.4633 84.0269 92.9415 85.5487 92.9415 87.4253V111.065C92.9415 112.942 94.4633 114.464 96.3399 114.464H106.29C108.166 114.464 109.688 112.942 109.688 111.065C109.688 109.189 108.166 107.667 106.29 107.667H99.7383V102.644H105.556C107.433 102.644 108.955 101.122 108.955 99.2454C108.955 97.3688 107.433 95.847 105.556 95.847H99.7383V90.8241H106.29V90.8237Z" fill="#FBFBFB"/>
<path d="M69.8708 87.2067V111.064C69.8708 112.941 71.3923 114.463 73.2693 114.463C75.1459 114.463 76.6677 112.941 76.6677 111.064V104.082C77.8823 104.076 79.1432 104.071 79.9051 104.071C85.5601 104.071 90.1609 99.526 90.1609 93.94C90.1612 88.3533 85.5604 83.8086 79.9054 83.8086C77.6934 83.8086 75.4817 83.8086 73.2696 83.8086C73.0413 83.8154 71.6965 83.8786 70.7201 85.0001C69.9415 85.8942 69.8787 86.9083 69.8708 87.2067ZM79.9054 97.2739C79.1489 97.2739 77.9027 97.279 76.6959 97.2848C76.6898 96.0284 76.6847 94.7213 76.6847 93.9397C76.6847 93.2732 76.6817 91.9234 76.6779 90.6051H79.9054C81.7803 90.6051 83.3644 92.132 83.3644 93.9397C83.3644 95.747 81.7803 97.2739 79.9054 97.2739Z" fill="#FBFBFB"/>
<path d="M51.5465 83.8086C43.102 83.8086 36.2318 90.6843 36.2318 99.1362C36.2318 107.587 43.102 114.464 51.5465 114.464C59.9909 114.464 66.8608 107.588 66.8608 99.1362C66.8608 90.6846 59.9906 83.8086 51.5465 83.8086ZM51.5465 107.666C46.8498 107.666 43.0286 103.84 43.0286 99.1359C43.0286 94.4321 46.8495 90.6051 51.5465 90.6051C56.2431 90.6051 60.064 94.4321 60.064 99.1359C60.064 103.84 56.2431 107.666 51.5465 107.666Z" fill="#FBFBFB"/>
</svg>
