<svg width="91" height="43" viewBox="0 0 91 43" fill="none" xmlns="http://www.w3.org/2000/svg">
<g clip-path="url(#clip0)">
<path d="M48.484 26.435C47.873 26.1344 47.4084 25.7144 47.0901 25.1747C46.7719 24.6351 46.6122 24.0067 46.6112 23.2898C46.6021 22.3785 46.8267 21.4798 47.2642 20.6765C47.693 19.8884 48.3368 19.2337 49.1232 18.7858C49.9268 18.3209 50.8562 18.0882 51.9114 18.0879C52.7654 18.0879 53.4981 18.2382 54.1094 18.5387C54.7208 18.8392 55.1875 19.2593 55.5097 19.799C55.8322 20.339 55.9934 20.9673 55.9934 21.6839C56.0024 22.5961 55.7755 23.4955 55.334 24.2977C54.9025 25.0849 54.2578 25.7392 53.4713 26.1879C52.6677 26.6535 51.7383 26.8862 50.6831 26.8858C49.8301 26.8858 49.0971 26.7355 48.484 26.435ZM53.0184 25.4836C53.6611 25.1033 54.1848 24.556 54.532 23.9019C54.8895 23.2292 55.0723 22.4801 55.0642 21.7211C55.0642 20.8645 54.7837 20.1809 54.2228 19.6702C53.6618 19.1595 52.8633 18.9035 51.8273 18.9021C50.9815 18.9021 50.2321 19.0977 49.5793 19.489C48.9366 19.8694 48.4128 20.4167 48.0657 21.0708C47.709 21.7394 47.5261 22.4845 47.5335 23.2395C47.5335 24.1045 47.814 24.7923 48.3749 25.303C48.9358 25.8137 49.735 26.0695 50.7725 26.0706C51.6176 26.0706 52.367 25.8749 53.0205 25.4836H53.0184Z" fill="#333333"/>
<path d="M59.0211 26.435C58.4095 26.1344 57.9447 25.7144 57.6268 25.1747C57.3089 24.6351 57.1492 24.0067 57.1478 23.2898C57.1387 22.3785 57.3633 21.4798 57.8008 20.6765C58.2294 19.8885 58.873 19.2337 59.6593 18.7858C60.4636 18.3209 61.393 18.0882 62.4475 18.0879C63.3015 18.0879 64.0342 18.2382 64.6455 18.5387C65.2568 18.8392 65.7238 19.2593 66.0463 19.799C66.3684 20.339 66.5295 20.9673 66.5295 21.6839C66.5385 22.5961 66.3116 23.4955 65.8701 24.2977C65.4385 25.0849 64.7938 25.7391 64.0074 26.1879C63.2031 26.6535 62.2736 26.8862 61.2192 26.8858C60.3662 26.8858 59.6335 26.7355 59.0211 26.435ZM63.555 25.4836C64.1977 25.1033 64.7215 24.556 65.0686 23.9019C65.4261 23.2292 65.6089 22.4801 65.6008 21.7211C65.6008 20.8645 65.3203 20.1809 64.7594 19.6702C64.1985 19.1595 63.4 18.9035 62.3639 18.9021C61.5184 18.9021 60.7691 19.0977 60.1159 19.489C59.4734 19.8697 58.9498 20.4169 58.6023 21.0708C58.2456 21.7394 58.0627 22.4845 58.0701 23.2395C58.0701 24.1045 58.3506 24.7923 58.9115 25.303C59.4725 25.8137 60.2718 26.0695 61.3096 26.0706C62.1551 26.0706 62.9043 25.8749 63.5571 25.4836H63.555Z" fill="#333333"/>
<path d="M78.5539 18.1626L76.7976 26.8118H75.9056L77.2995 19.9528L72.7533 25.7123H72.3137L69.963 19.8444L68.5564 26.8134H67.6649L69.4212 18.1642H70.1748L72.7118 24.5892L77.7353 18.1642L78.5539 18.1626Z" fill="#333333"/>
<path d="M81.4175 18.1626H82.3323L80.5761 26.8118H79.6591L81.4175 18.1626Z" fill="#333333"/>
<path d="M89.4806 24.5012H84.5678L83.0478 26.8118H82.0452L87.8228 18.1626H88.7398L91.0001 26.8118H90.0709L89.4806 24.5012ZM89.3045 23.7598L88.1118 19.0888L85.0468 23.7598H89.3045Z" fill="#333333"/>
<path d="M49.3713 31.1864C49.2859 31.2735 49.2301 31.3845 49.2117 31.5042L49.1616 31.7409H49.829L49.7795 31.9854H49.1222L48.7369 33.8855H48.4426L48.8279 31.9854H48.4384L48.4841 31.7409H48.878L48.9312 31.4717C48.959 31.2915 49.0472 31.1257 49.1818 31.0005C49.3207 30.8876 49.4974 30.8296 49.6773 30.8377C49.7616 30.837 49.8455 30.8493 49.9259 30.8743C49.9959 30.895 50.0608 30.9297 50.1164 30.9764L49.9881 31.1885C49.9018 31.1161 49.7907 31.0787 49.6773 31.0837C49.5657 31.0778 49.456 31.1145 49.3713 31.1864Z" fill="#333333"/>
<path d="M50.5196 33.7935C50.3752 33.723 50.2549 33.6126 50.1736 33.4757C50.0896 33.3298 50.0473 33.1642 50.0512 32.9966C50.0468 32.7693 50.1018 32.5446 50.2109 32.3442C50.3151 32.1545 50.4708 31.997 50.6606 31.8892C50.8577 31.7779 51.0816 31.7209 51.3088 31.7243C51.6129 31.7243 51.854 31.8058 52.0321 31.9688C52.2102 32.1318 52.2989 32.352 52.2982 32.6295C52.3021 32.8575 52.2472 33.0827 52.1385 33.284C52.0346 33.4744 51.8789 33.6324 51.6888 33.7406C51.4916 33.8519 51.2674 33.9089 51.0401 33.9055C50.86 33.9094 50.6815 33.871 50.5196 33.7935ZM51.5473 33.5202C51.6917 33.434 51.8088 33.3098 51.8852 33.1615C51.9681 33.002 52.0101 32.8249 52.0076 32.6458C52.0076 32.4363 51.9446 32.2725 51.8187 32.1541C51.6927 32.0358 51.5166 31.9768 51.2902 31.9772C51.1193 31.9748 50.9513 32.02 50.8054 32.1075C50.6613 32.195 50.5446 32.3198 50.4679 32.4683C50.3848 32.6284 50.3431 32.8063 50.3466 32.9861C50.3466 33.1955 50.4094 33.3587 50.535 33.4757C50.6606 33.5926 50.8368 33.6511 51.0635 33.6511C51.234 33.6526 51.4015 33.6073 51.5473 33.5202Z" fill="#333333"/>
<path d="M53.9836 31.8251C54.1515 31.754 54.3332 31.7199 54.5158 31.7251L54.4626 32.0063L54.3796 32.0021C54.1681 31.9941 53.9615 32.0656 53.8016 32.2021C53.6508 32.3355 53.5494 32.5339 53.4972 32.7974L53.2731 33.886H52.9788L53.4099 31.7393H53.6915L53.6169 32.1309C53.7084 31.9979 53.8352 31.8921 53.9836 31.8251Z" fill="#333333"/>
<path d="M58.6184 31.7407L57.0265 34.1629C56.8942 34.3639 56.77 34.5035 56.654 34.5817C56.5311 34.6612 56.3864 34.7018 56.2394 34.698C56.1375 34.6981 56.0364 34.6803 55.9408 34.6456C55.857 34.6175 55.7818 34.5691 55.7221 34.5048L55.8818 34.2953C55.931 34.3468 55.9909 34.3875 56.0573 34.4145C56.1237 34.4416 56.1952 34.4545 56.2671 34.4524C56.3602 34.4536 56.4515 34.4266 56.5284 34.3749C56.6256 34.3014 56.7073 34.21 56.769 34.1058L56.9222 33.8775L56.3794 31.7449H56.6774L57.1293 33.5717L58.3187 31.7449L58.6184 31.7407Z" fill="#333333"/>
<path d="M59.2933 33.794C59.1489 33.7236 59.0287 33.6131 58.9474 33.4762C58.8635 33.3302 58.8213 33.1647 58.825 32.9971C58.8206 32.7698 58.8755 32.5452 58.9846 32.3447C59.0889 32.1551 59.2445 31.9976 59.4343 31.8897C59.6324 31.7779 59.8575 31.721 60.0857 31.7248C60.3898 31.7248 60.6309 31.8063 60.809 31.9693C60.9871 32.1323 61.0758 32.3526 61.0751 32.6301C61.0793 32.8581 61.0244 33.0833 60.9154 33.2846C60.8117 33.475 60.6559 33.6331 60.4657 33.7411C60.2685 33.8525 60.0444 33.9094 59.817 33.9061C59.6358 33.9103 59.4563 33.8719 59.2933 33.794ZM60.3215 33.5207C60.4658 33.4345 60.5827 33.3102 60.6589 33.162C60.7418 33.0025 60.7838 32.8255 60.7813 32.6463C60.7813 32.4369 60.7185 32.273 60.5929 32.1547C60.4673 32.0363 60.2912 31.9773 60.0645 31.9777C59.8936 31.9752 59.7255 32.0204 59.5796 32.1081C59.4354 32.1955 59.3185 32.3203 59.2417 32.4688C59.1588 32.6283 59.1167 32.8054 59.1193 32.9846C59.1193 33.194 59.1821 33.3572 59.3077 33.4741C59.4333 33.591 59.6094 33.6495 59.8361 33.6495C60.007 33.6519 60.1751 33.6073 60.3215 33.5207Z" fill="#333333"/>
<path d="M64.155 31.7407L63.7196 33.8874H63.4386L63.5089 33.545C63.3045 33.7869 63.024 33.9079 62.6675 33.9079C62.4248 33.9079 62.235 33.8461 62.098 33.7225C61.9611 33.5989 61.8926 33.427 61.8926 33.2068C61.8932 33.1259 61.9015 33.0452 61.9176 32.9659L62.1661 31.7428H62.4604L62.2119 32.9659C62.1994 33.0291 62.1925 33.0932 62.1911 33.1576C62.1911 33.3157 62.2375 33.4368 62.3301 33.5209C62.4227 33.6047 62.5616 33.6471 62.7462 33.6471C62.9557 33.6549 63.1608 33.5867 63.3226 33.4555C63.4743 33.3277 63.577 33.1413 63.6292 32.8968L63.8612 31.7449L64.155 31.7407Z" fill="#333333"/>
<path d="M65.8582 31.8247C66.026 31.7535 66.2077 31.7193 66.3904 31.7247L66.3372 32.0058L66.2547 32.0016C66.0422 31.9927 65.8343 32.0641 65.6735 32.2011C65.5231 32.3345 65.4216 32.5329 65.3691 32.7965L65.1493 33.885H64.855L65.2861 31.7383H65.5681L65.4936 32.1299C65.5844 31.9972 65.7106 31.8917 65.8582 31.8247Z" fill="#333333"/>
<path d="M70.2128 31.8343C70.3541 31.9042 70.4715 32.0134 70.5502 32.1484C70.6334 32.2953 70.6749 32.4615 70.6705 32.6296C70.6738 32.8575 70.6189 33.0825 70.5108 33.2841C70.4092 33.4734 70.2563 33.6314 70.0691 33.7407C69.877 33.8518 69.6575 33.9088 69.4347 33.9056C69.2503 33.9119 69.0677 33.8683 68.9068 33.7794C68.7655 33.6968 68.6578 33.5686 68.6018 33.4166L68.5066 33.8852H68.2245L68.8381 30.8599H69.1335L68.8892 32.0641C68.9926 31.9566 69.1174 31.8712 69.2559 31.8133C69.4023 31.7537 69.5594 31.724 69.7179 31.7259C69.8893 31.7225 70.059 31.7596 70.2128 31.8343ZM69.9142 33.5202C70.0574 33.434 70.1735 33.3106 70.2501 33.1637C70.3333 33.0035 70.3752 32.8257 70.3719 32.6458C70.3719 32.4364 70.3091 32.2725 70.1835 32.1542C70.0579 32.0358 69.8818 31.9769 69.6551 31.9772C69.4851 31.9745 69.3178 32.019 69.1723 32.1055C69.029 32.1924 68.9128 32.3165 68.8365 32.4641C68.7533 32.6251 68.7113 32.8035 68.7141 32.9841C68.7141 33.1935 68.7771 33.3567 68.9031 33.4736C69.029 33.5906 69.2052 33.649 69.4315 33.649C69.6015 33.6516 69.7688 33.6069 69.9142 33.5202Z" fill="#333333"/>
<path d="M73.7457 31.7407L73.3103 33.8874H73.0288L73.099 33.545C72.8947 33.7869 72.6142 33.9079 72.2576 33.9079C72.0142 33.9079 71.8242 33.8461 71.6876 33.7225C71.551 33.5989 71.4827 33.427 71.4827 33.2068C71.4831 33.1259 71.4913 33.0453 71.5072 32.9659L71.7563 31.7428H72.0506L71.8015 32.9659C71.7891 33.0291 71.7821 33.0932 71.7808 33.1576C71.7808 33.3157 71.8271 33.4368 71.9197 33.5209C72.0123 33.6047 72.1512 33.6471 72.3364 33.6471C72.5457 33.6548 72.7506 33.5866 72.9122 33.4555C73.0645 33.3277 73.1668 33.1415 73.2193 32.8968L73.4514 31.7449L73.7457 31.7407Z" fill="#333333"/>
<path d="M74.5813 33.8327C74.4467 33.7967 74.3215 33.7328 74.2141 33.6453L74.3551 33.417C74.4516 33.4949 74.5628 33.5531 74.6824 33.5882C74.8199 33.632 74.9636 33.6541 75.1082 33.6537C75.3154 33.6537 75.475 33.6203 75.5871 33.5537C75.639 33.5262 75.6821 33.4851 75.7116 33.435C75.7412 33.3849 75.7562 33.3278 75.7548 33.2699C75.7561 33.2395 75.7507 33.2092 75.739 33.1811C75.7272 33.153 75.7094 33.1277 75.6867 33.107C75.638 33.0644 75.5807 33.0325 75.5185 33.0133C75.4232 32.984 75.3263 32.9595 75.2284 32.94C75.1037 32.9144 74.9806 32.8817 74.8596 32.8421C74.7677 32.81 74.6852 32.7561 74.6196 32.685C74.5492 32.6034 74.5136 32.4982 74.5201 32.3913C74.5177 32.2953 74.5401 32.2003 74.585 32.1151C74.63 32.0299 74.696 31.9572 74.7771 31.9038C74.9481 31.7834 75.1773 31.723 75.4647 31.7227C75.6041 31.7224 75.7429 31.7409 75.8772 31.7776C75.9938 31.8063 76.1041 31.8554 76.2029 31.9227L76.0784 32.1546C75.99 32.0924 75.891 32.0461 75.7862 32.018C75.6736 31.9869 75.5572 31.9712 75.4403 31.9714C75.2412 31.9714 75.0863 32.007 74.9756 32.0761C74.9248 32.105 74.8826 32.1468 74.8536 32.197C74.8245 32.2472 74.8095 32.3042 74.8101 32.362C74.8088 32.3938 74.8144 32.4255 74.8265 32.455C74.8387 32.4845 74.857 32.5112 74.8804 32.5332C74.9308 32.5785 74.9911 32.612 75.0565 32.6311C75.1275 32.6527 75.2235 32.6758 75.3445 32.7002C75.4672 32.7255 75.5883 32.7575 75.7074 32.796C75.7987 32.8265 75.8807 32.8791 75.9459 32.9489C76.0151 33.0279 76.0507 33.1301 76.0454 33.2343C76.0481 33.3319 76.025 33.4285 75.9783 33.5147C75.9317 33.6009 75.8631 33.6737 75.7793 33.7259C75.6036 33.8439 75.3695 33.9029 75.0768 33.9029C74.9089 33.9045 74.7418 33.8808 74.5813 33.8327Z" fill="#333333"/>
<path d="M77.2153 31.7407H77.5096L77.0785 33.8874H76.7842L77.2153 31.7407ZM77.3457 31.2145C77.3282 31.1967 77.3145 31.1756 77.3053 31.1525C77.2962 31.1294 77.2918 31.1047 77.2925 31.0799C77.2915 31.0508 77.2967 31.0218 77.3078 30.9947C77.3189 30.9677 77.3356 30.9432 77.3568 30.9229C77.3782 30.9018 77.4037 30.8854 77.4318 30.8745C77.46 30.8636 77.49 30.8585 77.5202 30.8595C77.5469 30.8587 77.5736 30.8632 77.5985 30.8726C77.6234 30.8821 77.6462 30.8963 77.6655 30.9145C77.6837 30.9307 77.6983 30.9505 77.7082 30.9726C77.7182 30.9947 77.7234 31.0186 77.7235 31.0428C77.7243 31.0729 77.7188 31.1029 77.7074 31.131C77.696 31.159 77.6789 31.1844 77.6572 31.2058C77.6355 31.2271 77.6096 31.2439 77.5812 31.2551C77.5527 31.2664 77.5222 31.2718 77.4915 31.271C77.4645 31.2724 77.4375 31.2681 77.4124 31.2583C77.3872 31.2486 77.3645 31.2336 77.3457 31.2145Z" fill="#333333"/>
<path d="M80.2796 31.9095C80.4164 32.0336 80.4845 32.2037 80.4845 32.4215C80.484 32.5036 80.4757 32.5855 80.4595 32.6661L80.2109 33.885H79.9166L80.1657 32.6619C80.1782 32.5973 80.185 32.5318 80.1859 32.466C80.1903 32.4 80.1797 32.3337 80.1551 32.2721C80.1304 32.2105 80.0922 32.1549 80.0433 32.1095C79.948 32.0268 79.8075 31.9849 79.6223 31.9849C79.412 31.9769 79.2059 32.0442 79.0422 32.1744C78.89 32.3011 78.7878 32.488 78.7356 32.7352L78.5036 33.8871H78.2093L78.6404 31.7404H78.9219L78.8517 32.0828C79.0589 31.8433 79.3427 31.7238 79.7032 31.7241C79.9505 31.7241 80.1426 31.7859 80.2796 31.9095Z" fill="#333333"/>
<path d="M81.6083 32.8954C81.605 32.9237 81.6036 32.9522 81.604 32.9807C81.604 33.1985 81.6668 33.3645 81.7924 33.4786C81.9186 33.5928 82.1054 33.6499 82.3544 33.6499C82.4924 33.6507 82.6293 33.6266 82.7584 33.5786C82.8753 33.5367 82.9809 33.469 83.0671 33.3807L83.1996 33.5902C83.0907 33.6948 82.9599 33.7748 82.8164 33.8247C82.6604 33.8807 82.4955 33.9089 82.3294 33.908C82.0144 33.908 81.766 33.8265 81.5843 33.6635C81.4027 33.5005 81.3122 33.2776 81.3129 32.9948C81.3094 32.7694 81.3628 32.5467 81.4683 32.3466C81.5672 32.1572 81.718 31.9987 81.9037 31.8891C82.0893 31.7796 82.3024 31.7233 82.5189 31.7267C82.8088 31.7267 83.0394 31.8075 83.2108 31.9691C83.3821 32.1307 83.4678 32.3531 83.4678 32.6362C83.4667 32.7242 83.4569 32.8119 83.4385 32.898L81.6083 32.8954ZM81.9521 32.1623C81.7931 32.297 81.6825 32.4786 81.637 32.6802H83.1916C83.1948 32.6545 83.1962 32.6286 83.1959 32.6027C83.1959 32.4016 83.1336 32.2461 83.0091 32.1362C82.8845 32.0262 82.7188 31.9711 82.512 31.9707C82.308 31.9654 82.1091 32.0331 81.9521 32.1613V32.1623Z" fill="#333333"/>
<path d="M84.284 33.8327C84.1495 33.7967 84.0243 33.7328 83.9168 33.6453L84.0578 33.417C84.1543 33.4948 84.2656 33.553 84.3851 33.5882C84.5227 33.632 84.6664 33.6541 84.8109 33.6537C85.0181 33.6537 85.1778 33.6203 85.2899 33.5537C85.3417 33.5262 85.3848 33.4851 85.4144 33.435C85.444 33.3849 85.4589 33.3278 85.4575 33.2699C85.4589 33.2395 85.4535 33.2092 85.4417 33.1811C85.43 33.1529 85.4121 33.1277 85.3894 33.107C85.3407 33.0644 85.2834 33.0325 85.2212 33.0133C85.1259 32.984 85.0291 32.9595 84.9312 32.94C84.8064 32.9143 84.6833 32.8817 84.5624 32.8421C84.4704 32.81 84.3879 32.7561 84.3224 32.685C84.252 32.6034 84.2163 32.4982 84.2228 32.3913C84.2205 32.2953 84.2428 32.2003 84.2878 32.1151C84.3327 32.0299 84.3988 31.9572 84.4799 31.9038C84.6509 31.7834 84.8801 31.723 85.1675 31.7227C85.3067 31.7241 85.4452 31.7442 85.5789 31.7823C85.6955 31.811 85.8058 31.8601 85.9046 31.9274L85.7801 32.1593C85.6917 32.0971 85.5927 32.0508 85.4879 32.0227C85.3753 31.9916 85.2589 31.9759 85.142 31.9761C84.9429 31.9761 84.788 32.0117 84.6773 32.0808C84.6265 32.1097 84.5843 32.1515 84.5553 32.2017C84.5262 32.2519 84.5112 32.3089 84.5118 32.3667C84.5105 32.3985 84.5161 32.4302 84.5282 32.4597C84.5403 32.4892 84.5587 32.5159 84.5821 32.5379C84.6325 32.5832 84.6927 32.6167 84.7582 32.6358C84.8292 32.6574 84.9252 32.6805 85.0462 32.7049C85.1688 32.7302 85.29 32.7622 85.4091 32.8007C85.5004 32.8312 85.5823 32.8838 85.6475 32.9536C85.7168 33.0326 85.7524 33.1348 85.7471 33.239C85.7498 33.3366 85.7267 33.4332 85.68 33.5194C85.6334 33.6056 85.5648 33.6784 85.481 33.7306C85.3053 33.8486 85.0712 33.9076 84.7784 33.9076C84.6107 33.9075 84.444 33.8823 84.284 33.8327Z" fill="#333333"/>
<path d="M86.6211 33.8327C86.4867 33.7968 86.3616 33.7329 86.2545 33.6453L86.395 33.417C86.4915 33.4949 86.6027 33.5531 86.7223 33.5882C86.8598 33.632 87.0035 33.6541 87.148 33.6537C87.3552 33.6537 87.5149 33.6203 87.627 33.5537C87.6788 33.5262 87.7219 33.4851 87.7515 33.435C87.7811 33.3849 87.796 33.3278 87.7947 33.2699C87.796 33.2395 87.7906 33.2092 87.7789 33.1811C87.7671 33.1529 87.7492 33.1277 87.7265 33.107C87.678 33.0645 87.6209 33.0326 87.5589 33.0133C87.4635 32.9841 87.3667 32.9596 87.2689 32.94C87.1439 32.9144 87.0206 32.8817 86.8995 32.8421C86.8075 32.81 86.7251 32.7561 86.6595 32.685C86.5891 32.6034 86.5534 32.4982 86.5599 32.3913C86.5577 32.2953 86.5801 32.2004 86.625 32.1152C86.67 32.03 86.736 31.9573 86.817 31.9038C86.9884 31.7834 87.2176 31.723 87.5046 31.7227C87.6453 31.7237 87.7852 31.7438 87.9203 31.7823C88.0369 31.811 88.1472 31.8601 88.246 31.9274L88.1215 32.1593C88.0331 32.0971 87.9341 32.0508 87.8293 32.0227C87.7167 31.9916 87.6003 31.9759 87.4833 31.9761C87.2843 31.9761 87.1294 32.0117 87.0192 32.0808C86.9682 32.1096 86.926 32.1513 86.8968 32.2016C86.8676 32.2518 86.8526 32.3088 86.8532 32.3667C86.8519 32.3985 86.8575 32.4302 86.8696 32.4597C86.8817 32.4892 86.9001 32.5159 86.9234 32.5379C86.974 32.5831 87.0342 32.6166 87.0996 32.6358C87.1704 32.6573 87.2662 32.6803 87.3881 32.7049C87.5106 32.7303 87.6316 32.7623 87.7505 32.8007C87.8417 32.8312 87.9237 32.8838 87.9889 32.9536C88.0583 33.0325 88.094 33.1348 88.0885 33.239C88.0914 33.3363 88.0687 33.4328 88.0226 33.519C87.9764 33.6051 87.9083 33.678 87.825 33.7306C87.6476 33.8486 87.4134 33.9076 87.1225 33.9076C86.9525 33.9082 86.7833 33.883 86.6211 33.8327Z" fill="#333333"/>
<path d="M41.6239 30.6746C38.1247 37.9604 30.5876 43 21.854 43C9.7841 43 3.2305e-06 33.3743 3.2305e-06 21.5003C-0.000955567 19.7618 0.211515 18.0296 0.632798 16.3413H4.93356C4.40922 18.0123 4.14334 19.7514 4.14483 21.5003C4.14483 31.1218 12.0747 38.9222 21.854 38.9222C28.2112 38.9222 33.7877 35.6236 36.9118 30.6746H41.6239Z" fill="#333333"/>
<path d="M43.707 21.5003C43.7084 23.2178 43.5013 24.9293 43.0902 26.5985H38.7926C39.3046 24.9465 39.5639 23.2289 39.5622 21.5018C39.5622 11.8798 31.6323 4.07931 21.8535 4.07931C15.5202 4.07931 9.96559 7.34861 6.83461 12.2651H2.1134C5.62491 5.01182 13.145 0 21.8535 0C33.9229 0 43.707 9.62572 43.707 21.5003Z" fill="#333333"/>
<path d="M35.4495 21.4676C35.4521 23.2293 35.0971 24.9738 34.4053 26.5988H29.7938C30.7373 25.2026 31.2782 23.5808 31.3589 21.9061C31.4395 20.2313 31.0568 18.5664 30.2516 17.0888C29.4464 15.6111 28.2488 14.376 26.7864 13.5151C25.324 12.6542 23.6516 12.1997 21.9474 12.2C21.5797 12.2 12.2166 12.2618 12.2166 12.2618C13.4743 10.9706 14.9851 9.94353 16.6576 9.24268C18.3301 8.54183 20.1296 8.18172 21.9474 8.18409C29.4042 8.18619 35.4495 14.1337 35.4495 21.4676Z" fill="#333333"/>
<path d="M31.679 30.6743C30.4212 31.9656 28.9103 32.9927 27.2377 33.6935C25.5652 34.3944 23.7656 34.7544 21.9476 34.752C14.4914 34.752 8.44605 28.8045 8.44605 21.4669C8.44393 19.7063 8.79892 17.9629 9.49025 16.3389H14.1034C13.1608 17.7349 12.6206 19.3562 12.5404 21.0303C12.4601 22.7044 12.8428 24.3685 13.6476 25.8456C14.4525 27.3227 15.6494 28.5574 17.111 29.4183C18.5726 30.2792 20.2441 30.7341 21.9476 30.7345C22.3159 30.7345 31.679 30.6743 31.679 30.6743Z" fill="#333333"/>
<path d="M90.9936 28.0774L90.7807 29.0722L18.7773 29.0681C18.5838 29.0678 18.3934 29.0206 18.2229 28.9305C18.0524 28.8405 17.9072 28.7104 17.8002 28.5518C17.694 28.4005 17.6274 28.2257 17.6064 28.0431C17.5855 27.8604 17.6107 27.6754 17.6799 27.5046L17.7124 27.4392L25.1904 15.0792C25.2037 15.0542 25.2104 15.0263 25.2099 14.998C25.2095 14.9698 25.2018 14.9421 25.1877 14.9175C25.1754 14.8979 25.1579 14.8819 25.1371 14.8712C25.1163 14.8605 25.093 14.8555 25.0696 14.8567H1.06384C1.17348 14.5234 1.29163 14.1939 1.41829 13.8682H25.0696C25.2643 13.8671 25.456 13.9154 25.6263 14.0083C25.7966 14.1011 25.9397 14.2356 26.0419 14.3986C26.1472 14.568 26.2063 14.7612 26.2138 14.9596C26.2212 15.158 26.1767 15.355 26.0845 15.5316L26.0659 15.5651L18.6038 27.8989C18.602 27.9351 18.6127 27.9709 18.6341 28.0005C18.6493 28.0244 18.6704 28.0442 18.6954 28.058C18.7205 28.0718 18.7486 28.0792 18.7773 28.0795L90.9936 28.0774Z" fill="#333333"/>
</g>
<defs>
<clipPath id="clip0">
<rect width="91" height="43" fill="white"/>
</clipPath>
</defs>
</svg>
